<svg xmlns="http://www.w3.org/2000/svg" width="40" height="25" viewBox="0 0 40 25">
    <path d="M36.667 3.333H25V0h11.667zM39.543 20c-.737 2.162-3.382 5-8.5 5s-9.273-2.882-9.273-9.458c0-6.517 3.875-9.867 9.11-9.867 5.137 0 8.273 2.97 8.958 7.377a22.316 22.316 0 0 1 .158 3.567H26.617A4.49 4.49 0 0 0 34.263 20zm-12.81-6.667h8.275c-.175-2.578-1.893-3.7-4.128-3.7-2.443.002-3.795 1.282-4.147 3.7zM10.777 24.98H0V.035h11.588c9.127.135 9.3 9.073 4.533 11.51 5.769 2.1 5.962 13.435-5.344 13.435zM5 10h5.973c4.18 0 4.843-5-.52-5H5zm5.652 5H5v5.027h5.568c5.092 0 4.78-5.027.083-5.027z" style="fill:#fff"/>
</svg>
