<svg xmlns="http://www.w3.org/2000/svg" width="235.895" height="390" viewBox="0 0 235.895 390">
    <g transform="translate(-94.244 -380.118)">
        <path data-name="Path 1900" d="M436.131 376.042c-2.654-2.547-5.369-16.748-8.758-18.19 2.533 5.6.694 7.081.68 13.225a41.57 41.57 0 0 1-1.213 10.355h-57.405v-44.8a30.652 30.652 0 0 1 30.654-30.653 18.292 18.292 0 0 1 4.543.665 29.145 29.145 0 0 1 20.562 20.618c4.376 15.995 11.336 42.621 10.937 48.78z" transform="translate(-111.222 74.141)" style="fill:#2f2e41"/>
        <path data-name="Path 1901" d="m373.985 425.839.028-34.92-20.527 1.834 7.244 22.024-3.39 55.357a8.684 8.684 0 1 0 10.509 7.32z" transform="translate(-112.403 79.316)" style="fill:#ffb6b6"/>
        <path data-name="Path 1902" d="M257.746 434.644h8.292l3.945-31.986h-12.24z" transform="translate(44.232 319.728)" style="fill:#ffb6b6"/>
        <path data-name="Path 1903" d="m408.076 654.815 13.109-.782v5.617l12.463 8.608a3.508 3.508 0 0 1-1.994 6.4h-15.606l-2.69-5.556-1.05 5.556h-5.884z" transform="translate(-108.906 95.466)" style="fill:#2f2e41"/>
        <path data-name="Path 1904" d="M212.62 434.644h8.294l3.944-31.986h-12.239z" transform="translate(41.407 319.728)" style="fill:#ffb6b6"/>
        <path data-name="Path 1905" d="m362.95 654.815 13.109-.782v5.617l12.463 8.608a3.508 3.508 0 0 1-1.994 6.4h-15.606l-2.69-5.556-1.05 5.556H361.3z" transform="translate(-111.731 95.466)" style="fill:#2f2e41"/>
        <path data-name="Path 1906" d="m406.946 355.43-17.179.337-12.127 12.8-9.722 1.426a19.409 19.409 0 0 0-16.552 17.955l1.684 9.251h10.105L369 431.524c-2.273 5.792-2.428 10.364 2.238 12.16l14.484 27.285 42.78-19.2c2.169-3.73 2.865-7.476.647-11.119l3.058-52.545h10.283c0-9.828-3.324-18.113-13.091-19.206a115.463 115.463 0 0 0-11.677-.668z" transform="translate(-112.352 77.236)" style="fill:#e6e6e6"/>
        <path data-name="Path 1907" d="M428.857 446.57s-41.769 7.411-57.264-8.084c0 0-1.573 2.671-3.944 7.1-.682 1.274-2 2.137-2.793 3.679-.723 1.4-2.581 3.126-3.368 4.716-.633 1.279.383 2.951-.276 4.333-7.935 16.644-17.206 40.122-15.219 55.625 1.282 10 3.929 33.261 6.717 58.247.218 1.952-1.547 4.46-1.328 6.428.206 1.856 2.4 3.17 2.6 5.03.137 1.235-1.392 2.495-1.255 3.728.15 1.353 1.966 2.68 2.115 4.028 3.819 34.5 7.316 66.711 7.316 66.711H381.7l3.686-73.565-3.013-26.816 7.074-54.233 9.769 51.538 1.257 29.006 10.324 75.417h18.062V586.45l1.347-3.793-1.347-4.864 1.347-5.241-1.347-5.708z" transform="translate(-112.706 81.974)" style="fill:#2f2e41"/>
        <path data-name="Path 1908" d="M410.7 347.892a19.473 19.473 0 1 1 3.374-16.273c.056.233.1.465.149.706a19.447 19.447 0 0 1-3.523 15.567z" transform="translate(-110.832 74.812)" style="fill:#ffb6b6"/>
        <path data-name="Path 1909" d="M406.67 336.857a10.235 10.235 0 0 0-2.991-5.423 13.965 13.965 0 0 1-.808 5.854 26.985 26.985 0 0 1-14.828-2.937c-3.436-2.331-7.808-2.129-12.9 0a18.862 18.862 0 0 1 18.866-18.863h3.366a18.866 18.866 0 0 1 18.864 18.86 56.157 56.157 0 0 1-9.569 2.509z" transform="translate(-110.864 74.736)" style="fill:#2f2e41"/>
        <circle data-name="Ellipse 400" cx="54.192" cy="54.192" r="54.192" transform="translate(94.244 543.365)" style="fill:#f0f0f0"/>
        <path data-name="Path 1913" d="M405.778 501.24H263.617a7.638 7.638 0 0 1-7.617-7.618v-69.269a7.638 7.638 0 0 1 7.618-7.619h142.159a7.638 7.638 0 0 1 7.619 7.618v69.269a7.638 7.638 0 0 1-7.618 7.619z" transform="translate(-118.322 80.896)" style="fill:#fff"/>
        <path data-name="Path 1914" d="M405.778 501.24H263.617a7.638 7.638 0 0 1-7.617-7.618v-69.269a7.638 7.638 0 0 1 7.618-7.619h142.159a7.638 7.638 0 0 1 7.619 7.618v69.269a7.638 7.638 0 0 1-7.618 7.619zm-142.161-82.38a5.51 5.51 0 0 0-5.494 5.495v69.267a5.509 5.509 0 0 0 5.495 5.493h142.158a5.51 5.51 0 0 0 5.495-5.495v-69.267a5.51 5.51 0 0 0-5.495-5.493z" transform="translate(-118.322 80.896)" style="fill:#3f3d56"/>
        <path data-name="Path 1915" d="M341.566 490.469c-28.037 0-57.272-.268-68.18-.442a5.5 5.5 0 0 1-5.386-5.478V427.21a1.944 1.944 0 0 1 1.937-1.942h128.015a1.944 1.944 0 0 1 1.942 1.937v38.9a24.271 24.271 0 0 1-23.863 24.176c-10.166.136-22.204.188-34.465.188z" transform="translate(-117.571 81.428)" style="fill:#3360a3"/>
        <path data-name="Path 1916" d="M391.008 463.068H275.335a4.716 4.716 0 0 1-4.425-3.119l-13.092-36.73a4.7 4.7 0 0 1 4.418-6.276l144.589-.2a4.7 4.7 0 0 1 4.632 5.523l.112.047-.415.969v.01l-15.832 36.928a4.686 4.686 0 0 1-4.314 2.847zm15.824-44.2-144.592.2a2.574 2.574 0 0 0-2.42 3.438l13.092 36.728a2.586 2.586 0 0 0 2.425 1.709h115.671a2.564 2.564 0 0 0 2.361-1.559l15.831-36.932.778.334-.778-.334a2.573 2.573 0 0 0-2.365-3.586z" transform="translate(-118.225 80.916)" style="fill:#3f3d56"/>
        <circle data-name="Ellipse 404" cx="9.058" cy="9.058" r="9.058" transform="translate(207.102 533.832)" style="fill:#fff"/>
        <path data-name="Path 1922" d="m439.37 418.23.028-34.92-20.527 1.834 7.244 22.024-26.3 39.862a8.684 8.684 0 1 0 10.509 7.32z" transform="translate(-109.744 78.859)" style="fill:#ffb6b6"/>
    </g>
</svg>
