<svg xmlns="http://www.w3.org/2000/svg" width="817" height="587.516" viewBox="0 0 817 587.516">
    <g data-name="Group 61" transform="translate(-14628 -1142.95)">
        <g data-name="Group 40" transform="translate(15183.142 1498.795)">
            <path data-name="Rectangle 38" transform="translate(14.38 200.718)" style="fill:#cbd4e3" d="M0 0h30.954v30.954H0z"/>
            <path data-name="Path 154" d="M245.544 740.672h32.583v-32.583h-32.583zm30.954-1.629h-29.325v-29.325H276.5z" transform="translate(-227.091 -513.073)" style="fill:#273852"/>
            <path data-name="Path 155" d="M226.138 512.392c-11.485.246-20.621 8.569-20.621 8.569s9.485 7.924 20.97 7.677 20.621-8.569 20.621-8.569-9.485-7.924-20.97-7.677z" transform="translate(-168.876 -450.34)" style="fill:#e8666d"/>
            <path data-name="Path 156" d="M151.152 446.5c-10.376 4.93-22.274 1.587-22.274 1.587s4.925-11.335 15.3-16.265 22.274-1.587 22.274-1.587-4.924 11.333-15.3 16.265z" transform="translate(-36.148 -423.65)" style="fill:#e8666d"/>
            <path data-name="Path 157" d="M145 447.435c-11.44-1.046-21.453 6.2-21.453 6.2s8.534 8.939 19.975 9.984 21.453-6.2 21.453-6.2-8.53-8.938-19.975-9.984z" transform="translate(-31.056 -429.486)" style="fill:#273852"/>
            <path data-name="Path 158" d="M230.793 441c1.1 11.435-6.1 21.481-6.1 21.481s-8.977-8.495-10.073-19.93 6.1-21.481 6.1-21.481 8.98 8.491 10.073 19.93z" transform="translate(-158.78 -421.066)" style="fill:#273852"/>
            <path data-name="Path 159" d="M305.8 547.253c6 9.8 3.936 21.981 3.936 21.981s-11.793-3.7-17.793-13.493-3.936-21.981-3.936-21.981 11.793 3.696 17.793 13.493z" transform="translate(-287.668 -457.191)" style="fill:#273852"/>
            <path data-name="Path 160" d="m195.586 628.917-.874-.591a27.4 27.4 0 0 0 4.835-15.193c-.024-7.945-3.927-15.294-7.7-22.4-.7-1.319-1.4-2.634-2.07-3.948a86.192 86.192 0 0 1-6.7-16.829c-5.854-21.756-.09-47.423 15.418-68.661 12.3-16.848 30.642-31.58 56.066-45.039l.494.933c-25.279 13.382-43.5 28.013-55.708 44.729-15.322 20.982-21.023 46.314-15.251 67.764a85.166 85.166 0 0 0 6.624 16.622 298.83 298.83 0 0 0 2.063 3.934c3.834 7.22 7.8 14.687 7.824 22.893a28.461 28.461 0 0 1-5.021 15.786z" transform="translate(-160.042 -432.346)" style="fill:#273852"/>
            <circle data-name="Ellipse 51" cx="10.026" cy="10.026" r="10.026" transform="translate(134.603 5.244)" style="fill:#273852"/>
        </g>
        <g data-name="Group 60" transform="translate(14648.278 1381.597)">
            <path data-name="Path 695" d="M459.91 670.222c1.468-.217 9.662-4 6.455-1.284a6.386 6.386 0 0 1-6.455 1.284z" transform="translate(-459.91 -462.209)" style="opacity:.1"/>
            <path data-name="Path 567" d="M142.174 460.229v34.058h-9.731l-6.487-35.68z" transform="translate(-40.655 -188.399)" style="fill:#cc9c80"/>
            <path data-name="Path 568" d="M28.794 460.229v34.058h-9.73l-6.487-35.68z" transform="translate(-4.31 -188.399)" style="fill:#cc9c80"/>
            <path data-name="Path 569" d="M259.672 253.189s-15.637-11.239-17.591-5.864 11.728 15.148 11.728 15.148z" transform="translate(-183.855 -232.422)" style="fill:#cc9c80"/>
            <path data-name="Path 570" d="M186.429 261.259c0 6.568-.128 9.447.339 10.59.43 1.186 1.744-.868 6.281-2.476a16.742 16.742 0 0 1 5.884-1.54c5.879 0 13.725 4.3 21.839-.564 4.986-2.987 9.04-10.289 9.04-12.492 0-19.431-5.077-28.7-18.706-28.7-13.451 0-24.389 15.345-24.674 34.656-.001.022-.003.274-.003.526z" transform="translate(-166.074 -226.077)" style="fill:#d8c77f"/>
            <path data-name="Path 571" d="M224.862 276.881s-1.955 14.659 7.33 15.637-30.3 3.909-30.3 3.909 10.262-9.284 4.886-16.614 18.084-2.932 18.084-2.932z" transform="translate(-171.034 -241.943)" style="fill:#cc9c80"/>
            <path data-name="Path 572" d="m299.633 662.983 3.421 28.83s17.1 21.012 6.352 19.546-17.591.312-17.591-1.643-.253-8.938-1.719-8.938-2.679 11.027-2.679 11.027-4.4-.333-4.886-.821-.977-28.455-.977-28.455-1.466-8.307 1.466-12.216 2.443-7.33 2.443-7.33z" transform="translate(-196.452 -366.13)" style="fill:#2f2e41"/>
            <path data-name="Path 573" d="m185.06 662.517 3.421 28.83s17.1 21.012 6.352 19.546-17.591.312-17.591-1.643-.253-8.938-1.719-8.938-2.679 11.027-2.679 11.027-4.4-.333-4.886-.821-.977-28.455-.977-28.455-1.466-8.307 1.466-12.216 2.443-7.33 2.443-7.33z" transform="translate(-159.724 -365.981)" style="fill:#2f2e41"/>
            <path data-name="Path 574" d="M236.97 410.548s15.637 44.467 16.614 54.24-.977 43-.977 43 14.171 57.412 11.239 57.9-19.259 2.805-19.748.362-2.231-6.226-1.742-7.692-1.466-6.841-1.466-9.773-6.852-18.32-6.363-20.763-8.307-38.6-9.773-41.535-5.375-23.455-5.375-23.455-21.989 60.1-22.478 61.57-2.443 3.909-1.466 4.4-1.466 3.909-1.466 3.909-5.063 20.275-5.063 21.252.977 12.039-.977 12.528-21.92.457-22.9-2.963 10.371-43.034 10.371-43.034 8.307-24.921 5.864-31.273 2.443-44.467 4.4-47.4S188.1 421.3 188.1 421.3z" transform="translate(-159.198 -285.211)" style="fill:#192333"/>
            <circle data-name="Ellipse 191" cx="15.637" cy="15.637" r="15.637" transform="translate(29.641 11.728)" style="fill:#cc9c80"/>
            <path data-name="Path 575" d="M214.949 294.9s-17.591.489-18.569-.977-25.41 3.421-25.41 13.193S185.142 355 185.142 355s5.375 27.364 3.909 30.3 54.24-6.352 52.774-11.239-9.773-15.637.977-24.921a61.746 61.746 0 0 0 15.148-19.057l-12.7-33.717s-12.7-1.955-15.637 0-14.664-1.466-14.664-1.466z" transform="translate(-161.121 -247.742)" style="fill:#3360a3"/>
            <path data-name="Path 576" d="m280.665 319.715 3.421-2.443s31.762-33.228 23.455-39.58-20.523-12.216-26.387-12.7S270.4 260.1 270.4 260.1s-6.352-11.239-11.239-3.909-10.262 9.773-3.421 12.216 11.239 1.466 14.659 3.909 16.614 6.352 10.75 7.818a52.447 52.447 0 0 0-9.773 3.421l-6.352 11.239z" transform="translate(-187.258 -234.934)" style="fill:#3360a3"/>
            <path data-name="Path 577" d="M207.842 472.4s12.7 18.569 3.421 17.591-13.682-13.682-13.682-13.682z" transform="translate(-169.651 -305.037)" style="fill:#cc9c80"/>
            <path data-name="Path 578" d="m172.035 309.862-3.421 2.443s-11.239 61.57 0 77.695 12.216 15.148 12.216 15.148 1.955-1.466 2.932 8.307-.489 13.682 2.443 13.682 16.125-2.932 15.148-5.375-7.33-16.614-7.818-20.035-2.932-11.239-3.909-15.637 4.4-6.841 1.955-16.125-5.864-25.9-5.864-29.319-13.682-30.784-13.682-30.784z" transform="translate(-158.765 -252.935)" style="fill:#3360a3"/>
            <path data-name="Path 579" d="M200.817 241.359c0 5.263 7.22 9.529 16.125 9.529s17.1 2.819 17.1-2.443-8.2-16.614-17.1-16.614-16.125 4.269-16.125 9.528z" transform="translate(-170.689 -227.921)" style="fill:#d8c77f"/>
        </g>
        <path data-name="Rectangle 136" transform="translate(14628 1725.71)" style="fill:#273852" d="M0 0h673.777v1.522H0z"/>
        <g data-name="Group 39" transform="translate(14838.802 1274.851)">
            <path data-name="Path 383" d="M498.443 238.262H271.685a4.2 4.2 0 0 0-4.2 4.2v193.9a4.2 4.2 0 0 0 4.2 4.2h226.758a4.2 4.2 0 0 0 4.2-4.2v-193.9a4.2 4.2 0 0 0-4.2-4.2zm2.517 198.1a2.526 2.526 0 0 1-2.517 2.525H271.685a2.521 2.521 0 0 1-2.517-2.525v-193.9a2.521 2.521 0 0 1 2.517-2.525h226.758a2.526 2.526 0 0 1 2.517 2.525z" transform="translate(-267.484 -238.262)" style="fill:#3f3d56"/>
            <path data-name="Path 384" d="M334.562 477.2c0 .3-.008.6-.024.889a17.1 17.1 0 0 1-34.163 0c-.016-.291-.024-.59-.024-.889a17.105 17.105 0 1 1 34.21 0z" transform="translate(-278.02 -309.371)" style="fill:#fff"/>
            <path data-name="Path 385" d="M516.72 468.479h-134.4a2.851 2.851 0 1 0 0 5.7h134.4a2.851 2.851 0 1 0 0-5.7z" transform="translate(-303.381 -312.059)" style="fill:#3f3d56"/>
            <path data-name="Path 386" d="M440.152 493.66H382.32a2.848 2.848 0 0 0 0 5.7h57.832a2.848 2.848 0 1 0 0-5.7z" transform="translate(-303.383 -320.131)" style="fill:#fff"/>
            <path data-name="Path 387" d="M576.975 386.41H350.218a5.815 5.815 0 0 1-5.808-5.809v-99.512a5.815 5.815 0 0 1 5.808-5.809h226.757a5.815 5.815 0 0 1 5.809 5.809V380.6a5.815 5.815 0 0 1-5.809 5.81zM350.218 277.318a3.775 3.775 0 0 0-3.77 3.771V380.6a3.775 3.775 0 0 0 3.77 3.771h226.757a3.775 3.775 0 0 0 3.77-3.771v-99.511a3.775 3.775 0 0 0-3.77-3.771z" transform="translate(-292.143 -250.128)" style="fill:#fff"/>
            <path data-name="Path 388" d="M419.579 328.7a2.851 2.851 0 1 0 0 5.7h134.4a2.851 2.851 0 0 0 0-5.7z" transform="translate(-315.325 -267.252)" style="fill:#fff"/>
            <path data-name="Path 389" d="M419.579 353.012a2.851 2.851 0 0 0 0 5.7h134.4a2.851 2.851 0 0 0 0-5.7z" transform="translate(-315.325 -275.046)" style="fill:#fff"/>
            <path data-name="Path 390" d="M419.579 377.029a2.851 2.851 0 1 0 0 5.7h57.832a2.851 2.851 0 1 0 0-5.7z" transform="translate(-315.325 -282.745)" style="fill:#fff"/>
            <path data-name="Path 392" d="M481.877 616.806H319.994a3 3 0 0 1-3-3v-40.154a3 3 0 0 1 3-3h161.883a3 3 0 0 1 3 3v40.156a3 3 0 0 1-3 2.998zm-161.883-44.952a1.8 1.8 0 0 0-1.8 1.8v40.156a1.8 1.8 0 0 0 1.8 1.8h161.883a1.8 1.8 0 0 0 1.8-1.8v-40.158a1.8 1.8 0 0 0-1.8-1.8z" transform="translate(-283.356 -344.813)" style="fill:#3f3d56"/>
            <circle data-name="Ellipse 153" cx="12.212" cy="12.212" r="12.212" transform="translate(49.581 235.166)" style="fill:#fff"/>
            <path data-name="Path 393" d="M398.978 590.368a2.035 2.035 0 1 0 0 4.071h95.948a2.035 2.035 0 1 0 0-4.07z" transform="translate(-308.983 -351.132)" style="fill:#fff"/>
            <path data-name="Path 394" d="M398.978 608.341a2.035 2.035 0 1 0 0 4.07h41.287a2.035 2.035 0 1 0 0-4.07z" transform="translate(-308.983 -356.893)" style="fill:#fff"/>
        </g>
        <circle data-name="Ellipse 243" cx="10.375" cy="10.375" r="10.375" transform="translate(14954.715 1142.95)" style="fill:#cbd4e3"/>
        <circle data-name="Ellipse 244" cx="17.394" cy="17.394" r="17.394" transform="translate(15077.362 1169.774)" style="fill:#cbd4e3"/>
        <circle data-name="Ellipse 245" cx="17.394" cy="17.394" r="17.394" transform="translate(14984.347 1199.734)" style="fill:#cbd4e3"/>
        <circle data-name="Ellipse 246" cx="10.375" cy="10.375" r="10.375" transform="translate(15424.25 1417.271)" style="fill:#cbd4e3"/>
        <circle data-name="Ellipse 247" cx="17.394" cy="17.394" r="17.394" transform="translate(15380.106 1363.988)" style="fill:#cbd4e3"/>
        <circle data-name="Ellipse 248" cx="17.394" cy="17.394" r="17.394" transform="translate(15403.132 1448.389)" style="fill:#cbd4e3"/>
        <circle data-name="Ellipse 249" cx="5.877" cy="5.877" r="5.877" transform="translate(14758.336 1351.922)" style="fill:#cbd4e3"/>
        <circle data-name="Ellipse 250" cx="9.852" cy="9.852" r="9.852" transform="translate(14779.555 1325.702)" style="fill:#cbd4e3"/>
        <circle data-name="Ellipse 251" cx="9.852" cy="9.852" r="9.852" transform="translate(14732.4 1340.983)" style="fill:#cbd4e3"/>
        <circle data-name="Ellipse 252" cx="5.877" cy="5.877" r="5.877" transform="translate(15277.802 1405.231)" style="fill:#cbd4e3"/>
        <circle data-name="Ellipse 253" cx="9.852" cy="9.852" r="9.852" transform="translate(15299.021 1379.011)" style="fill:#cbd4e3"/>
        <circle data-name="Ellipse 254" cx="9.852" cy="9.852" r="9.852" transform="translate(15251.868 1394.292)" style="fill:#cbd4e3"/>
        <circle data-name="Ellipse 255" cx="24.63" cy="24.63" r="24.63" transform="translate(14871.688 1169.775)" style="fill:#cbd4e3"/>
        <circle data-name="Ellipse 256" cx="14.214" cy="14.214" r="14.214" transform="translate(15204.11 1211.385)" style="fill:#cbd4e3"/>
        <circle data-name="Ellipse 257" cx="14.214" cy="14.214" r="14.214" transform="translate(15323.761 1239.922)" style="fill:#cbd4e3"/>
        <circle data-name="Ellipse 296" cx="5.877" cy="5.877" r="5.877" transform="translate(15189.474 1259.151)" style="fill:#cbd4e3"/>
        <circle data-name="Ellipse 297" cx="9.852" cy="9.852" r="9.852" transform="translate(15146.146 1234.29)" style="fill:#cbd4e3"/>
        <circle data-name="Ellipse 298" cx="9.852" cy="9.852" r="9.852" transform="translate(15175.77 1281.504)" style="fill:#cbd4e3"/>
        <circle data-name="Ellipse 299" cx="24.63" cy="24.63" r="24.63" transform="translate(15259.3 1281.289)" style="fill:#cbd4e3"/>
    </g>
</svg>
