<svg xmlns="http://www.w3.org/2000/svg" width="398" height="306" viewBox="0 0 398 306">
    <g data-name="mi start map image" transform="translate(-20207 2917.591)">
        <path data-name="Path 1330" d="M236.992 105.043c-25.022 4.171-50.083 1.924-74.209-1.183s-48.194-7.075-73.269-6.305c-16.121.5-34.054 3.663-45.209 13.37-10.731 9.342-12.266 22.11-12.164 33.653.077 8.688.894 17.684 6.785 24.664 4.09 4.85 10.342 8.366 15.07 12.848 16.471 15.6 11.8 39.762 1.37 60.228-4.906 9.6-10.9 19.024-14.193 28.863s-3.617 20.452 2.586 28.615c6.147 8.076 17.9 12.733 30.139 15.224 24.844 5.063 52.417 2.449 79.087-1.183 59.027-8.093 117.413-21.183 175.588-34.234 21.542-4.832 43.179-9.689 63.905-16.8 11.509-3.94 23.218-8.9 30.588-16.736 9.354-9.955 9.438-23.7.2-32.033-15.487-13.964-50.181-11.354-62.227-27.26-6.638-8.747-3.936-20.508 1.135-30.85 10.864-22.183 32.154-43.965 29.088-66.257C389.156 74.36 374.3 61.544 354.573 58c-20.677-3.716-47.1 2.488-58.8 17.708-12.058 15.668-36.688 25.654-58.781 29.335z" transform="translate(20174.863 -2974.54)" style="fill:#cbd4e3"/>
        <path data-name="Path 1334" d="m899.079 173 .105.179c-9.5 11.856-10.125 30.265-10.163 30.423l-2-2.313c.034-.169 2.498-16.356 12.058-28.289z" transform="translate(19619.578 -3049.92)" style="fill:#444053"/>
        <path data-name="Path 1339" d="M929.773 222.779s-5.134-10.769-.564-17.779" transform="translate(19593.402 -3070.781)" style="fill:none;stroke:#444053;stroke-miterlimit:10"/>
        <path data-name="Path 1343" d="M947.58 178.26s-7.058 6.743-6.157 10.493" transform="translate(19584.291 -3053.337)" style="fill:none;stroke:#444053;stroke-miterlimit:10"/>
        <path data-name="Path 1344" d="M933.022 169.635s-6.617 1.185-7.542-.985" transform="translate(19594.596 -3047.095)" style="fill:none;stroke:#444053;stroke-miterlimit:10"/>
        <path data-name="Path 1345" d="M922.46 148.67s3.343 4.426 4.206 3.434" transform="translate(19596.559 -3034.117)" style="fill:none;stroke:#444053;stroke-miterlimit:10"/>
        <path data-name="Path 1352" d="M900.049 159.26s-.021 9.9-2.7 10.6" transform="translate(19612.867 -3040.996)" style="fill:none;stroke:#444053;stroke-miterlimit:10"/>
        <path data-name="Path 1353" d="M842.17 187.318s10.7.915 15.641-4.608" transform="translate(19648.709 -3056.227)" style="fill:none;stroke:#444053;stroke-miterlimit:10"/>
        <path data-name="Path 1354" d="M879.122 125.88s-2.59 10.044-9.732 12.746" transform="translate(19631.029 -3019.314)" style="fill:none;stroke:#444053;stroke-miterlimit:10"/>
        <path data-name="Path 1355" d="M823.85 158.126a14.015 14.015 0 0 0 14.092-4.076" transform="translate(19660.607 -3037.611)" style="fill:none;stroke:#444053;stroke-miterlimit:10"/>
        <path data-name="Path 1357" d="M824.67 124.878s6.287.042 7.763-2.008" transform="translate(19660.076 -3017.359)" style="fill:none;stroke:#444053;stroke-miterlimit:10"/>
        <ellipse data-name="Ellipse 357" cx="136.68" cy="8.176" rx="136.68" ry="8.176" transform="translate(20319.965 -2652.918)" style="fill:#cbd4e3"/>
        <path data-name="Path 1361" d="M550.526 715.4v2.741H469.48v-2.229a26.634 26.634 0 0 0 1.833-49.193h78.663a26.665 26.665 0 0 0 .55 48.681z" transform="translate(19890.791 -3371.029)" style="fill:#d2d4de"/>
        <path data-name="Path 1362" d="M553.386 666.72a26.68 26.68 0 0 0-14.719 17.663h-49.218a26.68 26.68 0 0 0-14.719-17.663z" transform="translate(19887.379 -3370.921)" style="opacity:.1"/>
        <path data-name="Path 1363" d="M204.68 626.89v15.381c0 8.5 6.217 15.385 13.888 15.385H457.01c7.671 0 13.888-6.886 13.888-15.385V626.89z" transform="translate(20062.787 -3345.043)" style="fill:#d2d4de"/>
        <path data-name="Path 1364" d="M550.526 800.408v2.74H469.48v-2.229a26.542 26.542 0 0 0 6.252-3.329h69.824a26.677 26.677 0 0 0 4.969 2.818z" transform="translate(19890.791 -3456.035)" style="opacity:.1"/>
        <rect data-name="Rectangle 248" width="134.606" height="8.12" rx="4.06" transform="translate(20333.486 -2657.59)" style="fill:#d2d4de"/>
        <path data-name="Path 1365" d="M470.9 120.118a13.888 13.888 0 0 0-13.89-13.888H218.568a13.888 13.888 0 0 0-13.888 13.889v171.568H470.9z" transform="translate(20062.787 -3006.55)" style="fill:#30374e"/>
        <path data-name="Path 1366" d="M477.1 150.848v147.425a6.837 6.837 0 0 1-6.837 6.837H232.247a6.834 6.834 0 0 1-6.837-6.837V150.848a6.837 6.837 0 0 1 6.837-6.848h238.018a6.841 6.841 0 0 1 6.837 6.848z" transform="translate(20049.324 -3031.083)" style="fill:#dfe3ef"/>
        <circle data-name="Ellipse 361" cx="3.207" cy="3.207" r="3.207" transform="translate(20397.369 -2896.903)" style="fill:#fff"/>
        <circle data-name="Ellipse 362" cx="7.906" cy="7.906" r="7.906" transform="translate(20392.672 -2710.033)" style="fill:#fff"/>
        <path data-name="Path 1367" d="M477.1 150.848H225.41a6.834 6.834 0 0 1 6.837-6.848h238.014a6.834 6.834 0 0 1 6.837 6.848z" transform="translate(20049.324 -3031.083)" style="fill:#fff"/>
        <circle data-name="Ellipse 363" cx="1.71" cy="1.71" r="1.71" transform="translate(20279.859 -2885.366)" style="fill:#dfe3ef"/>
        <circle data-name="Ellipse 364" cx="1.71" cy="1.71" r="1.71" transform="translate(20284.988 -2885.366)" style="fill:#dfe3ef"/>
        <circle data-name="Ellipse 365" cx="1.71" cy="1.71" r="1.71" transform="translate(20290.115 -2885.366)" style="fill:#dfe3ef"/>
        <path data-name="Rectangle 249" transform="translate(20298.43 -2861.425)" style="fill:#fff" d="M0 0h203.13v118.706H0z"/>
        <path data-name="Rectangle 250" transform="translate(20317.521 -2850.183)" style="fill:#dfe3ef" d="M0 0h25.934v26.887H0z"/>
        <path data-name="Rectangle 251" transform="translate(20350.814 -2850.183)" style="fill:#cbd4e3" d="M0 0h25.934v26.887H0z"/>
        <path data-name="Rectangle 252" transform="translate(20384.107 -2850.183)" style="opacity:.2;fill:#6c63ff" d="M0 0h25.934v26.887H0z"/>
        <path data-name="Rectangle 253" transform="translate(20417.4 -2850.183)" style="opacity:.2;fill:#6c63ff" d="M0 0h25.934v26.887H0z"/>
        <path data-name="Rectangle 254" transform="translate(20450.693 -2850.183)" style="opacity:.2;fill:#6c63ff" d="M0 0h25.934v26.887H0z"/>
        <path data-name="Path 1431" d="M376.472 257.54a4.332 4.332 0 1 0 4.332 4.328 4.332 4.332 0 0 0-4.332-4.328zm2.979 5.5c-.168-.056-.491-.074-.613-.217-.06-.074-.021-.35-.021-.35a1.293 1.293 0 0 0 .645-.126c.081-.049.046-.056 0-.126a2.565 2.565 0 0 1-.137-1.283 1.051 1.051 0 0 0-.417-.925 1.317 1.317 0 0 0-.652-.144 1.452 1.452 0 0 0-.526.084c-.883.35-.35 1.525-.666 2.194-.052.116-.126.154 0 .221a1.626 1.626 0 0 0 .6.13v.291c-.025.1-.245.172-.329.2a2.565 2.565 0 0 0-.35.119.084.084 0 0 0 0 .158 1.529 1.529 0 0 1 .242.06 2.278 2.278 0 0 1 .957.519 1.426 1.426 0 0 1 .417.929.259.259 0 0 1-.116.242l-.119.074a.056.056 0 0 1-.088-.049 1.4 1.4 0 0 0-.953-1.356c-.284-.1-.585-.105-.866-.2-.088-.028-.256-.067-.291-.161a1.052 1.052 0 0 1-.039-.308v-.238c0-.077.133-.161.161-.21a1.6 1.6 0 0 0 .144-.652c.182.049.2-.284.235-.389s.105-.435-.053-.491a.849.849 0 0 0 .088-.3 1.851 1.851 0 0 0-.025-.82 1.293 1.293 0 0 0-1.234-.862 1.321 1.321 0 0 0-1.321.789 1.725 1.725 0 0 0-.06.824 1.008 1.008 0 0 0 .1.375c-.133.06-.095.35-.07.445s.063.487.252.435a3.088 3.088 0 0 0 .081.5.722.722 0 0 0 .172.291c.035.042.056.046.053.1a2.137 2.137 0 0 1-.039.5c-.042.158-.389.224-.529.252a3.02 3.02 0 0 0-.862.242 3.747 3.747 0 1 1 6.669-.438.963.963 0 0 0-.466-.315z" transform="translate(19954.016 -3104.931)" style="fill:#fff"/>
        <path data-name="Path 1432" d="M379.05 302.528v-4.791l2.208 2.208.55-.571-3.154-3.154-3.154 3.154.554.55 2.208-2.187v4.791z" transform="translate(19951.834 -3130.073)" style="opacity:.5;fill:#6c63ff"/>
        <path data-name="Rectangle 256" transform="translate(20317.521 -2796.959)" style="fill:#dee2e8" d="M0 0h59.227v44.157H0z"/>
        <path data-name="Path 1436" d="M394.789 432.828a20.8 20.8 0 0 0-27.589 19.654 1.475 1.475 0 1 1-2.951 0A23.754 23.754 0 0 1 395.654 430" transform="translate(19959.141 -3216.226)" style="fill:#e8666d"/>
        <path data-name="Path 1437" d="M452.256 432.35a23.785 23.785 0 0 1 16.082 22.478 1.475 1.475 0 1 1-2.951 0 20.831 20.831 0 0 0-14-19.653" transform="translate(19902.539 -3218.573)" style="fill:#fff"/>
        <path data-name="Rectangle 257" transform="translate(20393.082 -2815.404)" style="fill:#cbd4e3" d="M0 0h89.853v66.821H0z"/>
        <path data-name="Rectangle 258" transform="translate(20402.33 -2765.159)" style="fill:#fff" d="M0 0h3.68v12.332H0z"/>
        <path data-name="Rectangle 259" transform="translate(20409.34 -2780.413)" style="fill:#fff" d="M0 0h3.68v27.598H0z"/>
        <path data-name="Rectangle 260" transform="translate(20416.35 -2794.158)" style="fill:#dfe3ef" d="M0 0h3.68v41.354H0z"/>
        <path data-name="Rectangle 261" transform="translate(20423.357 -2803.962)" style="fill:#fff" d="M0 0h3.68v51.166H0z"/>
        <path data-name="Rectangle 262" transform="translate(20416.35 -2803.962)" style="fill:#3360a3" d="M0 0h3.68v51.166H0z"/>
        <path data-name="Rectangle 263" transform="translate(20430.365 -2780.939)" style="fill:#3360a3" d="M0 0h3.68v28.124H0z"/>
        <path data-name="Rectangle 264" transform="translate(20437.375 -2788.205)" style="fill:#fff" d="M0 0h3.68v35.396H0z"/>
        <path data-name="Rectangle 265" transform="translate(20444.385 -2799.235)" style="fill:#fff" d="M0 0h3.68v46.435H0z"/>
        <path data-name="Rectangle 266" transform="translate(20451.395 -2773.497)" style="opacity:.2;fill:#6c63ff" d="M0 0h3.68v20.677H0z"/>
        <path data-name="Rectangle 267" transform="translate(20458.402 -2783.04)" style="opacity:.2;fill:#6c63ff" d="M0 0h3.68v30.227H0z"/>
        <path data-name="Rectangle 268" transform="translate(20465.412 -2794.158)" style="opacity:.2;fill:#6c63ff" d="M0 0h3.68v41.354H0z"/>
        <path data-name="Rectangle 269" transform="translate(20472.42 -2794.158)" style="opacity:.2;fill:#6c63ff" d="M0 0h3.68v41.354H0z"/>
        <path data-name="Path 1467" d="M852.321 411.28s.21 1.542-.7 2.162c-.015 0 1.671-.333.7-2.162z" transform="translate(19642.57 -3204.864)" style="opacity:.1"/>
        <path data-name="Path 1517" d="M217.883 91.561s-2.488-.3-3.193 1.356a2.061 2.061 0 0 1 .894.053 1.269 1.269 0 0 0 .582.112 3.336 3.336 0 0 1 1.717-1.521z" transform="translate(20056.287 -2997.009)" style="fill:#fff;opacity:.1"/>
        <path data-name="Path 1524" d="M157.045 166.71s-.953 2.317.452 3.441a2 2 0 0 1 .291-.848 1.248 1.248 0 0 0 .263-.533 3.322 3.322 0 0 1-1.006-2.061z" transform="translate(20093.936 -3045.835)" style="fill:#fff;opacity:.1"/>
        <path data-name="Path 1582" d="M204.4 128.83s-2.453.519-2.586 2.313a1.994 1.994 0 0 1 .866-.238 1.219 1.219 0 0 0 .585-.084 3.315 3.315 0 0 1 1.135-1.991z" transform="translate(20064.65 -3021.23)" style="fill:#fff;opacity:.1"/>
        <path data-name="Path 1603" d="M305.371 339.58a4.138 4.138 0 0 1-.375.35l-.046.035 1.276 2.127c.119-.238.224-.442.3-.578z" transform="translate(19997.658 -3158.257)" style="fill:#fff"/>
        <path data-name="Path 1604" d="m302.62 341.494 1.6 2.677c.1-.2.2-.4.294-.6l-1.384-2.306a2.129 2.129 0 0 1-.51.229z" transform="translate(19999.174 -3159.356)" style="fill:#fff"/>
        <g data-name="Group 82">
            <path data-name="Path 1239" d="m399.191 201.063 19.43 4.446 8.209-15.483-16.614-6.486z" transform="translate(20140.011 -2998.886)" style="fill:#2f2e41"/>
            <path data-name="Path 1240" d="M547.972 509.993s-6.246 14.313-6.246 18.477c0 0 2.472 11.32 1.692 14.443l-2.733 5.855-5.725-2.342-1.56-15.614.26-24.983z" transform="translate(20001.554 -3224.467)" style="fill:#ffb9b9"/>
            <path data-name="Path 1241" d="M581.125 281.811s.521 8.588-.52 11.19 3.9 7.547 3.9 7.547l7.807-10.149s-5.2-5.2-3.9-10.93z" transform="translate(19971.913 -3081.903)" style="fill:#ffb9b9"/>
            <path data-name="Path 1243" d="m4.554 39.556 2.472-24.593L6.9 0 1.171 1.041l-.144 5.308.251 1.458-.107 7.026L0 39.946" transform="rotate(45 13630.763 23404.107)" style="fill:#ffb9b9"/>
            <path data-name="Path 1244" d="m523.109 603.047 11.19-4.424 1.3 22.12s2.342 6.766 1.561 9.369c0 0 .521 4.424-.781 4.684s-4.944.781-5.2.521-.26-1.041-.26-1.041-2.6 1.822-2.863 3.9c0 0-10.93 3.383-11.19.26s5.465-5.725 5.465-5.725l4.424-6.766z" transform="translate(20011.973 -3282.91)" style="fill:#2f2e41"/>
            <path data-name="Path 1245" d="M610.889 509.993s-6.246 14.313-6.246 18.477c0 0 2.472 11.32 1.691 14.443l-2.732 5.855-5.725-2.342-1.561-15.614.26-24.983z" transform="translate(19961.929 -3224.467)" style="fill:#ffb9b9"/>
            <path data-name="Path 1246" d="m587.081 603.047 11.19-4.424 1.3 22.12s2.342 6.766 1.561 9.369c0 0 .521 4.424-.781 4.684s-4.944.781-5.2.521-.26-1.041-.26-1.041-2.6 1.822-2.863 3.9c0 0-10.93 3.383-11.19.26s5.465-5.725 5.465-5.725l4.424-6.766z" transform="translate(19971.683 -3282.91)" style="fill:#2f2e41"/>
            <path data-name="Path 1247" d="M583.446 255.461a8.328 8.328 0 0 1-16.453 1.822 8.077 8.077 0 0 1-.2-1.822 8.329 8.329 0 0 1 16.657 0z" transform="translate(19980.524 -3061.537)" style="fill:#ffb9b9"/>
            <path data-name="Path 1248" d="m558.449 308.909 6.462-3.356 2.906 2.315s7.026-.26 9.629 2.863 4.034 11.06 4.034 11.06-8.588-1.822-7.547 5.465l-1.561-4.164-1.431 3.513-17.441 5.985-7.8-13.272s-5.2-1.561-7.026 2.082c0 0 .39-13.142 5.465-13.532 3.413-.262 5.985-.26 5.985-.26l2.863-.521 1.833-.651z" transform="translate(19998.233 -3098.331)" style="fill:#575a89"/>
            <path data-name="Path 1249" d="M564.2 387.148s13.662 40.987 9.759 46.712c0 0-14.573 7.287-43.72-2.6l11.841-45.932a40.252 40.252 0 0 1 22.12 1.82z" transform="translate(20003.546 -3148.074)" style="fill:#2f2e41"/>
            <path data-name="Path 1250" d="m581.463 339.13 3.845-13.214c-4.612-5.016-.631-16.139-.631-16.139l-5.565-1.193s-5.585 15.062-11.311 13.24-2.6-13.532-2.6-13.532l-5.2.521-2.342 9.108 1.692 19.388a72.723 72.723 0 0 1 22.112 1.821z" transform="translate(19986.279 -3100.056)" style="fill:#575a89"/>
            <path data-name="Path 1251" d="m486.815 317.026 1.822-24.723.521-14.833-5.725 1.041V292.3l-1.171 25.113" transform="translate(20087.693 -3058.044)" style="fill:#ffb9b9"/>
            <path data-name="Path 1252" d="M622.109 445.763s-7.547 14.053-.26 13.012 4.814-13.4 4.814-13.4" transform="translate(19947.845 -3186.391)" style="fill:#fff"/>
            <path data-name="Path 1253" d="M639.578 326.757s-.925-13.365-8.66-13.318v15.456s5.797-3.439 8.66-2.138z" transform="translate(19940.135 -3103.297)" style="fill:#575a89"/>
            <path data-name="Path 1254" d="M596.119 268.933a.212.212 0 0 1-.133-.378l4.247-3.4a.212.212 0 0 1 .266.332l-4.247 3.4a.213.213 0 0 1-.133.046z" transform="translate(19962.186 -3072.86)" style="fill:#fff"/>
            <path data-name="Path 1255" d="M577.189 278.717c-.094.115-.187.229-.285.336a8.328 8.328 0 0 1-11.565-5.759l4.024-.74 7.825.74c-1.788 2.182-1.574 2.938.001 5.423z" transform="translate(19981.437 -3077.547)" style="fill:#fff"/>
            <path data-name="Path 1256" d="M556.581 236.163s-4.3.81-5.3 6.178a9.855 9.855 0 0 0-.084 2.741c.1 1.033-.045 3.216-2.288 5.785a56.246 56.246 0 0 0-4.085 5.246l4.5 1.2 2.01-7.451a38.122 38.122 0 0 1 4.454-10.238l.041-.066s1.494 3.991 5.5 4.538l-1.234-1.625a50.947 50.947 0 0 0 7.326 3.529 1.742 1.742 0 0 1 .562 3.03l-.057.044c-1.95 1.481-5.929 5.016-4.357 8.435s-.261 4.043-.261 4.043l3.38-1.286 1.547-.663-.156 1.144 7.553.158s2.041-.012-1.584-5.46a5.144 5.144 0 0 1-.156-3.6 8.29 8.29 0 0 0 .837-3.8c-.229-5.493-2.544-16.667-18.148-11.882z" transform="translate(19994.358 -3053.896)" style="fill:#2f2e41"/>
            <path data-name="Path 1242" d="M3.433.39s-7.547 14.053-.261 13.01S7.987 0 7.987 0" transform="rotate(50 13213.727 20614.67)" style="fill:#fff"/>
        </g>
        <g data-name="Group 85" transform="translate(20317.588 -2850.897)">
            <path data-name="Rectangle 245" transform="translate(0 .559)" style="fill:#3f3d56" d="M0 0h25.866v27.097H0z"/>
            <g data-name="Group 86" transform="translate(11.101 18.245)">
                <circle data-name="Ellipse 346" cx=".335" cy=".335" r=".335" transform="translate(6.055 1.174)" style="fill:#3360a3"/>
                <circle data-name="Ellipse 347" cx=".335" cy=".335" r=".335" transform="translate(4.789 .001)" style="fill:#3360a3"/>
                <path data-name="Path 1297" d="M899.226 286.256a.667.667 0 0 0-.349.1 2.09 2.09 0 0 0-.324-.38v-.054a.67.67 0 0 0-1.135-.482 2.053 2.053 0 0 0-.541 0v-.016a.67.67 0 1 0-1.111.5 2.105 2.105 0 0 0-.3.321.67.67 0 1 0-.429 1.185v.084a2.1 2.1 0 0 0 .061.5 1.256 1.256 0 1 0 1.64 1.557 2.092 2.092 0 0 0 1.369-.2.67.67 0 1 0 .879-.879 2.084 2.084 0 0 0 .239-.891.67.67 0 0 0 0-1.341z" transform="translate(-894.283 -284.747)" style="fill:#3360a3"/>
            </g>
            <circle data-name="Ellipse 348" cx=".335" cy=".335" r=".335" transform="translate(20.157 10.956)" style="fill:#3360a3"/>
            <circle data-name="Ellipse 349" cx=".335" cy=".335" r=".335" transform="translate(20.979 9.428)" style="fill:#3360a3"/>
            <path data-name="Path 1298" d="M918.328 231.371a.667.667 0 0 0-.19-.309 2.1 2.1 0 0 0 .278-.415l.053-.012a.67.67 0 0 0 .157-1.223 2.053 2.053 0 0 0-.142-.522h.015a.67.67 0 1 0-.787-.933 2.1 2.1 0 0 0-.392-.205.67.67 0 1 0-1.257-.091l-.081.021a2.1 2.1 0 0 0-.465.194 1.256 1.256 0 1 0-1.054 2 2.092 2.092 0 0 0 .567 1.263.67.67 0 1 0 1.085.608 2.082 2.082 0 0 0 .922-.012.67.67 0 0 0 1.291-.363z" transform="translate(-898.231 -221.45)" style="fill:#3360a3"/>
            <circle data-name="Ellipse 350" cx=".335" cy=".335" r=".335" transform="translate(7.087 6.402)" style="fill:#3360a3"/>
            <circle data-name="Ellipse 351" cx=".335" cy=".335" r=".335" transform="translate(5.362 6.539)" style="fill:#3360a3"/>
            <path data-name="Path 1299" d="M853.2 238.928a.667.667 0 0 0-.162.325 2.1 2.1 0 0 0-.5-.017.681.681 0 0 0-.038-.038.67.67 0 0 0-1.122.513 2.056 2.056 0 0 0-.369.4L851 240.1a.67.67 0 1 0-.377 1.16 2.109 2.109 0 0 0 .032.441.67.67 0 1 0 .586 1.116l.06.058a2.1 2.1 0 0 0 .411.293 1.256 1.256 0 1 0 2.255-.161 2.092 2.092 0 0 0 .773-1.148.67.67 0 1 0-.056-1.242 2.083 2.083 0 0 0-.5-.777.67.67 0 0 0-.99-.9z" transform="translate(-846.785 -231.139)" style="fill:#3360a3"/>
            <path data-name="Rectangle 246" transform="translate(8.645)" style="fill:#e6e6e6" d="M0 0h7.448v1.117H0z"/>
        </g>
        <g data-name="Group 87" transform="translate(20342.355 -2773.876)">
            <circle data-name="Ellipse 346" cx=".474" cy=".474" r=".474" transform="translate(8.566 1.661)" style="fill:#e8666d"/>
            <circle data-name="Ellipse 347" cx=".474" cy=".474" r=".474" transform="translate(6.776 .001)" style="fill:#e8666d"/>
            <path data-name="Path 1297" d="M901.276 286.882a.943.943 0 0 0-.494.14 2.979 2.979 0 0 0-.458-.538v-.076a.948.948 0 0 0-1.606-.682 2.906 2.906 0 0 0-.766-.007v-.022a.948.948 0 1 0-1.572.713 2.981 2.981 0 0 0-.43.454.948.948 0 1 0-.606 1.677v.119a2.969 2.969 0 0 0 .086.708 1.777 1.777 0 1 0 2.32 2.2 2.96 2.96 0 0 0 1.937-.287.948.948 0 1 0 1.244-1.244 2.947 2.947 0 0 0 .338-1.261.948.948 0 0 0 0-1.9z" transform="translate(-894.283 -284.747)" style="fill:#e8666d"/>
        </g>
        <g data-name="Group 92">
            <g data-name="Group 91" transform="translate(20235.539 -2783.149)">
                <ellipse data-name="Ellipse 377" cx="36.223" cy="4.662" rx="36.223" ry="4.662" transform="translate(0 162.233)" style="fill:#cbd4e3"/>
                <path data-name="Rectangle 292" transform="translate(31.519 43.116)" style="fill:#6c63ff;opacity:.1" d="M0 0h8.473v8.473H0z"/>
                <path data-name="Rectangle 294" transform="translate(31.519 64.015)" style="fill:#6c63ff;opacity:.1" d="M0 0h8.473v8.473H0z"/>
                <path data-name="Rectangle 296" transform="translate(31.519 84.91)" style="fill:#6c63ff;opacity:.1" d="M0 0h8.473v8.473H0z"/>
                <path data-name="Rectangle 298" transform="translate(31.519 105.809)" style="fill:#6c63ff;opacity:.1" d="M0 0h8.473v8.473H0z"/>
                <path data-name="Path 1741" d="m972.154 742.126.355 4.221-1.189-.238.179-4.579z" transform="translate(-958.411 -582.249)" style="fill:#1d2366"/>
                <path data-name="Path 1742" d="M876.227 675.322c1.433 4.081 1.028 9.59.706 12.265-.119.989-.229 1.591-.229 1.591s2.142 4.88 2.321 5.065 6.3 3.923 6.3 3.923l4.281 2.5s4.344-1.9 2.261-2.559a3.159 3.159 0 0 1-1.123-.766c-2.085-1.981-4.7-6.906-4.7-6.906a11.876 11.876 0 0 0-.834-3.688c-.655-1.189-.417-13.68-.417-13.68l-.051-20.362v-2.655l-8.148.06a18.441 18.441 0 0 1-.352 2.681 41 41 0 0 1-1.135 4.516c-1.436 4.645-.84 12.423 1.12 18.015z" transform="translate(-835.365 -535.489)" style="fill:#ffb0b1"/>
                <path data-name="Path 1743" d="M874.313 777.655s2.142 4.88 2.321 5.064 6.3 3.924 6.3 3.924l4.281 2.5s4.344-1.9 2.261-2.559a3.16 3.16 0 0 1-1.123-.766l-.185 1.3-1.427-.06-12.214-10.99c-.103.985-.214 1.587-.214 1.587z" transform="translate(-832.975 -623.966)" style="opacity:.1"/>
                <path data-name="Path 1744" d="m850.978 777 12.283 11.064 1.427.06.3-2.085s2.5 3.212 8.044 3.033c0 0 3.331 2.2-1.606 2.321s-11.24-.179-11.24-.179-4.4-6.852-8.088-5.958v5.175h-1.132v-5.222a4.7 4.7 0 0 1-2.008-3.1 3.8 3.8 0 0 1 1.314-3.48 2.244 2.244 0 0 0 .709-1.63z" transform="translate(-809.49 -624.618)" style="fill:#1d2366"/>
                <path data-name="Path 1745" d="M989.908 681.162c.792 2.83.361 4.424-.182 5.279v.018a9.753 9.753 0 0 0-1.424 3.477l-.048.268 5.589 8.148 3.033 1.192s4.877-1.665 3.986-2.142a4.564 4.564 0 0 1-.971-1.591c-1.192-2.577-2.836-7.332-2.836-7.332v-.039c-.173-1.963-.447-3.921-.751-5.869-.545-3.506.456-12.113.456-12.113s.357-10.466 1.132-12.846a19.644 19.644 0 0 0 .694-3.706c.161-1.49.2-2.717.2-2.717s-3.212-4.469-9.1.358a6.478 6.478 0 0 0-1.23 1.335c-4.067 5.785-.792 18.53-.792 18.53s.817 4.635 2.244 9.75z" transform="translate(-977.297 -534.966)" style="fill:#ffb0b1"/>
                <path data-name="Path 1746" d="m986.445 777.554 5.589 8.148 3.033 1.192s4.877-1.665 3.986-2.142a4.567 4.567 0 0 1-.971-1.591 3.854 3.854 0 0 0-3.134 1.948l-2.616-.417s-3.45-6.781-4.224-7.195-.119-3.1-.119-3.1v-.682c-.021.024-.039.051-.062.075v.018a9.757 9.757 0 0 0-1.424 3.477z" transform="translate(-975.497 -622.316)" style="opacity:.1"/>
                <path data-name="Path 1747" d="M981.7 785.692a3.641 3.641 0 0 1 4.344-1.725s1.606 3.277 3.212 3.807 1.07 2.318-2.559 1.665-9.1-1.192-9.1-1.192l-.238-3.334-3.688-4.7s-2.2-1.993 1.073-5.917v.682s-.655 2.681.119 3.1 4.213 7.2 4.213 7.2z" transform="translate(-962.429 -622.723)" style="fill:#1d2366"/>
                <path data-name="Path 1748" d="M900.492 650.09a18.424 18.424 0 0 1-.352 2.681 37.373 37.373 0 0 1 8.508-.086v-2.655z" transform="translate(-859.272 -535.475)" style="opacity:.1"/>
                <path data-name="Path 1749" d="M993.8 653.616s4.767.232 10.451.28c.161-1.49.2-2.717.2-2.717s-3.212-4.469-9.1.357a6.479 6.479 0 0 0-1.23 1.335 7.267 7.267 0 0 1-.319.745z" transform="translate(-982.974 -534.959)" style="opacity:.1"/>
                <path data-name="Path 1750" d="M890.91 530.1s20.878 1.01 27.241-.775 12.67-.238 13.621-.652.179-6.9-.655-8.505-5.41-17.845-5.41-17.845l-4.4-22.957-4.638-1.278-.328-.092-8.082-2.228-5.922-1.636s-11.776 45.977-10.767 49.367a8.68 8.68 0 0 1 .173 3.989 9.958 9.958 0 0 1-.833 2.612z" transform="translate(-880.084 -411.977)" style="fill:#1d2366"/>
                <path data-name="Path 1751" d="M872.855 439s4.171 4.469 1.013 6.959-5.234.238-5.234.238z" transform="translate(-816.287 -387.313)" style="fill:#c7daf5"/>
                <path data-name="Path 1752" d="M872.855 439s4.171 4.469 1.013 6.959-5.234.238-5.234.238z" transform="translate(-816.287 -387.313)" style="opacity:.1"/>
                <path data-name="Path 1753" d="M959.16 321.184s.489.465 1.224 1.15c1.049.98 2.6 2.413 3.977 3.614 1.907 1.659 3.48 2.878 2.917 1.838s-.456-2.851-.176-4.546c.021-.113.039-.226.06-.337a31.186 31.186 0 0 1 .921-3.682 63.729 63.729 0 0 0-4.785-5.55c-.635-.6-1.078-.84-1.105-.426a13.835 13.835 0 0 1-.965 3.092 70.483 70.483 0 0 1-1.126 2.722c-.525 1.219-.942 2.125-.942 2.125z" transform="translate(-936.289 -298.877)" style="fill:#ffb0b1"/>
                <path data-name="Path 1754" d="M959.16 316.467a8.842 8.842 0 0 0 5.922 6.78 31 31 0 0 1 .98-4.019s-5.8-7.493-5.89-5.976a14.172 14.172 0 0 1-1.012 3.215z" transform="translate(-934.269 -298.885)" style="opacity:.1"/>
                <path data-name="Path 1755" d="m928.066 351.508-.751-1.058s-.5 3.033-2.327 1.7-1.919 10.066-1.919 10.066l1.963 29.353 14.187-.849-.4-14.184-1.606-7.15-3.971-10.394-2.363-3.435z" transform="translate(-896.675 -325.143)" style="opacity:.1"/>
                <path data-name="Path 1756" d="m923.1 362.786 1.787 26.541.188 2.812 7.91-.474.3-.018 5.958-.358-.4-14.187-1.606-7.15-3.971-10.394-2.362-3.435-2.812-4.061-.751-1.055s-.5 3.033-2.327 1.7l-.039-.027c-1.791-1.134-1.875 10.106-1.875 10.106z" transform="translate(-896.705 -325.536)" style="fill:#1d2366"/>
                <path data-name="Path 1757" d="M871.246 406.26a2.171 2.171 0 0 0 2.142 1.248c1.43-.241 1.427 5.362 1.427 5.362s.95.894 1.606.119 2.383 1.844 2.383 1.844l10.826.477s-4.817 2.2-3.873 8.863c0 0-16.355-1.013-16.892-2.559s2.381-15.354 2.381-15.354z" transform="translate(-830.918 -364.327)" style="fill:#fff"/>
                <path data-name="Path 1758" d="M871.246 406.26a2.171 2.171 0 0 0 2.142 1.248c1.43-.241 1.427 5.362 1.427 5.362s.95.894 1.606.119 2.383 1.844 2.383 1.844l10.826.477s-4.817 2.2-3.873 8.863c0 0-16.355-1.013-16.892-2.559s2.381-15.354 2.381-15.354z" transform="translate(-830.918 -364.327)" style="opacity:.03"/>
                <path data-name="Path 1759" d="m804.007 389.76-2.854 2.437-23.493 4.936 2.914-2.973z" transform="translate(-732.216 -335.276)" style="fill:#fff"/>
                <path data-name="Path 1760" d="M904.349 350.586a60.087 60.087 0 0 1 2.44 6.31c.778 2.219 1.427 4.171 1.427 4.171s1.516 9.873 2.291 11.657.354 8.744.354 8.744l2.887 17.186s1.308 8.863 3.328 14.157a25.782 25.782 0 0 0 4.281 7.731c-.894-1.21-5.765-25.025-5.765-25.025l-1.609-30.036s-.235-2.854-.474-5.294-5.065-5.771-5.065-5.771l-4.653-6.617c-.467.627-.154 1.717.558 2.787z" transform="translate(-873.002 -323.283)" style="fill:#fff"/>
                <path data-name="Path 1761" d="M884.051 471.193s6.852-.3 10.171-4.284-7.671-1.591-7.671-1.591l-2.857.655z" transform="translate(-840.571 -405.29)" style="fill:#ffb0b1"/>
                <path data-name="Path 1762" d="M943.151 440.867a8.681 8.681 0 0 1 .173 3.989 56.79 56.79 0 0 0 15.471-1.49 34.749 34.749 0 0 0 5.413 3.39l2.139-26.514c1.367-3.575 1.9-22.3 1.9-22.3s-.122-.98-.3-2.449a.284.284 0 0 0-.015-.11c-.533-4.1-1.591-11.8-2.109-12.843-.715-1.43 2.2-5.234 2.2-5.234L966.7 366l-.161-1.364c-2.794-1.248-4.937-5.234-4.937-5.234l-1.644-2.881c-1.787-1.147-1.88 10.093-1.88 10.093l1.787 26.541-5.922-1.636s-11.802 45.958-10.792 49.348z" transform="translate(-931.669 -329.345)" style="opacity:.1"/>
                <path data-name="Path 1763" d="M944.29 425.966c8.148 4.046 22.957.3 22.957.3a34.753 34.753 0 0 0 5.413 3.39l2.14-26.516c1.365-3.575 1.9-22.3 1.9-22.3s-1.722-13.975-2.437-15.4a2.3 2.3 0 0 1 .14-1.7 21.561 21.561 0 0 0 1.3-9.977l-.572-4.859-.158-1.361c-2.8-1.251-4.939-5.237-4.939-5.237l-1.49-2.61-2.741-4.808-1.3-2.276-.22.2-1.683 1.525-1.787 1.49c-2.333 1.966-6.363 5.428-8.443 7.546-1.829 1.865-2.407 9.119-2.574 14.58-.11 3.6-.045 6.414-.045 6.414 1.844 3.036-2.979 27.408-2.979 27.408-1.115 4.698-2.482 34.191-2.482 34.191z" transform="translate(-940.479 -312.611)" style="fill:#fff"/>
                <path data-name="Path 1764" d="M924.479 363.95s5.592 10.644 4.942 14.69-2.5 8.625-1.606 9.694a3.292 3.292 0 0 0 2.619 1.308 8.608 8.608 0 0 1 3.277 1.9c0 .179 2.2.179 4.171 1.013a25.968 25.968 0 0 0 4.877 1.308s5.66-.179 6.188.358 1.069 3.745-.06 6.3-2.383 4.469-3.331 4.817-6.959-1.665-11.836-2.142-10.171-4.341-10.171-4.341-5.83-2.085-6.852-5.592 1.248-22.778 1.248-22.778 1.716-8.975 6.534-6.535z" transform="translate(-905.028 -334.326)" style="opacity:.03"/>
                <path data-name="Path 1765" d="M922.1 360.952s5.592 10.647 4.936 14.69-2.5 8.625-1.6 9.7a3.277 3.277 0 0 0 2.616 1.308 8.608 8.608 0 0 1 3.277 1.9c0 .179 2.2.179 4.171 1.01a26.226 26.226 0 0 0 4.877 1.308s5.66-.179 6.185.357 1.073 3.748-.06 6.3-2.383 4.469-3.331 4.817-6.959-1.665-11.836-2.139-10.171-4.344-10.171-4.344-5.827-2.085-6.837-5.589 1.248-22.781 1.248-22.781 1.705-8.974 6.525-6.537z" transform="translate(-901.931 -332.222)" style="opacity:.03"/>
                <path data-name="Path 1766" d="M923.916 362.159s5.592 10.647 4.936 14.69-2.5 8.625-1.606 9.694a3.277 3.277 0 0 0 2.619 1.311 8.647 8.647 0 0 1 3.277 1.9c0 .176 2.2.179 4.171 1.013a26.028 26.028 0 0 0 4.877 1.308s5.66-.179 6.188.357 1.069 3.748-.06 6.3-2.383 4.469-3.331 4.817-6.959-1.665-11.836-2.142-10.171-4.341-10.171-4.341-5.83-2.085-6.852-5.592 1.233-22.778 1.233-22.778 1.739-8.962 6.555-6.537z" transform="translate(-904.289 -333.072)" style="fill:#fff"/>
                <path data-name="Path 1767" d="M989.97 458.373s4.469-.894 2.914.6-1.546 2.794-3.45 2.735.536-3.335.536-3.335z" transform="translate(-970.221 -400.728)" style="opacity:.1"/>
                <path data-name="Path 1768" d="M1026.355 566.58s2.02 1.367-1.844 4.519 1.844-4.519 1.844-4.519z" transform="translate(-1014.158 -476.885)" style="opacity:.1"/>
                <path data-name="Path 1769" d="M1014.5 604.31c0 .179.715 6.554-1.96 8.148s1.96-8.148 1.96-8.148z" transform="translate(-998.449 -503.375)" style="opacity:.1"/>
                <path data-name="Path 1770" d="M855.722 436.59c2.157.074 6.816.733 4.4 5.24-2.136 3.989-5.726 1.323-7.746-.7a7.612 7.612 0 0 1 3.346-4.54z" transform="translate(-797.193 -385.621)" style="fill:#ffb0b1"/>
                <path data-name="Path 1771" d="M881.39 451z" transform="translate(-826.428 -395.738)" style="fill:#ffb0b1"/>
                <path data-name="Path 1772" d="m880.829 451.492-.089-.092z" transform="translate(-825.674 -396.019)" style="fill:#ffb0b1"/>
                <path data-name="Path 1773" d="M949.54 336.41c2.288 1.564 4.207 2.884 4.582 3.158 1.025.76 2.979 5.219 4.239 7.5 1 1.832 4.266 2.3 5.5 2.419l-.158-1.361c-2.8-1.251-4.939-5.237-4.939-5.237l-5.529-9.694-1.9 1.731z" transform="translate(-929.198 -313.025)" style="opacity:.1"/>
                <path data-name="Path 1774" d="M949.54 335.81c2.288 1.564 4.207 2.884 4.582 3.161 1.025.757 2.979 5.216 4.239 7.492 1 1.832 4.266 2.3 5.5 2.419l-.158-1.361c-2.8-1.251-4.939-5.237-4.939-5.237l-5.529-9.694-1.9 1.725s-.723.585-1.795 1.495z" transform="translate(-929.198 -312.604)" style="fill:#dce7ff"/>
                <path data-name="Path 1775" d="M923.5 297.1a8.836 8.836 0 1 0 7.512-8.735 8.821 8.821 0 0 0-7.512 8.735z" transform="translate(-898.751 -281.482)" style="fill:#ffb0b1"/>
                <path data-name="Path 1776" d="M925.65 326.814a7.854 7.854 0 0 0 2.851-3.062 8.069 8.069 0 0 1 1.677-2.815 7.451 7.451 0 0 1 2.741-1.058 8.034 8.034 0 0 0 5.86-7.052c.048-1.537-.432-3.072-.214-4.594a5.09 5.09 0 0 1 .995-2.368 8.143 8.143 0 0 1 .861-.926c.417-.393.855-.775 1.236-1.192a4.621 4.621 0 0 0 .626-.849 4.1 4.1 0 0 0 .343-.789c.6-1.823.054-3.986.709-5.83l.036-.1a1.9 1.9 0 0 1 1.451-1.361c.7-.051 1.3.53 1.966.789 1.4.542 2.9-.381 4.07-1.323s2.479-2.017 3.959-1.808a12.791 12.791 0 0 1 2.657 1.153 3.721 3.721 0 0 0 .629.182 8.835 8.835 0 0 0-16.838 5.136 72.265 72.265 0 0 1-1.126 2.722l-1.683 1.525-1.787 1.49c-2.333 1.966-6.363 5.428-8.443 7.546-1.831 1.87-2.403 9.124-2.576 14.584z" transform="translate(-916.325 -281.482)" style="opacity:.1"/>
                <path data-name="Path 1777" d="M957.645 272.205c-.426-.867-.638-1.838-1.147-2.66a6.339 6.339 0 0 0-3.393-2.416c-3.5-1.207-10.9-2.958-13.108 0a6.448 6.448 0 0 1-1.4 1.668 10.379 10.379 0 0 1-1.516.682 5.8 5.8 0 0 0-2.789 3.575c-.48 1.472-.623 3.051-.974 4.567a33.584 33.584 0 0 1-2.026 5.622c-.927 2.163-1.91 4.406-3.7 5.934-2.44 2.085-2.979 5.038-5.243 7.326-2.681 2.717-2.595 7.2-1.213 10.761a2.953 2.953 0 0 1 .316 1.454 2.851 2.851 0 0 1-.79 1.347l-1.466 1.653a8.242 8.242 0 0 0 9.006-4.153 8.056 8.056 0 0 1 1.68-2.815 7.429 7.429 0 0 1 2.738-1.055 8.045 8.045 0 0 0 5.86-7.058c.048-1.534-.432-3.068-.215-4.588a5.066 5.066 0 0 1 1-2.383c.819-1.07 2.056-1.787 2.723-2.979 1.129-1.993.271-4.582 1.084-6.721a1.9 1.9 0 0 1 1.451-1.362c.7-.051 1.3.53 1.969.789 1.394.542 2.9-.378 4.067-1.323s2.479-2.017 3.962-1.805a12.458 12.458 0 0 1 2.654 1.153c.667.256 2.02.486 2.6-.077 1.242-1.135-1.615-4.075-2.13-5.136z" transform="translate(-916.393 -265.503)" style="fill:#591d4b"/>
                <path data-name="Path 1778" d="M927.1 313.41a8.059 8.059 0 0 1 1.68-2.812 7.427 7.427 0 0 1 2.741-1.058 8.046 8.046 0 0 0 5.86-7.055c.048-1.534-.432-3.071-.217-4.591a5.092 5.092 0 0 1 1-2.368c.822-1.069 2.058-1.787 2.723-2.979 1.129-1.99.271-4.579 1.088-6.721a1.907 1.907 0 0 1 1.448-1.361c.7-.054 1.3.533 1.969.792 1.394.542 2.9-.381 4.067-1.323s2.482-2.017 3.962-1.808a12.7 12.7 0 0 1 2.655 1.153c.667.256 2.023.489 2.607-.074 1.227-1.192-1.63-4.126-2.142-5.181a28.513 28.513 0 0 0-1.15-2.66 3.347 3.347 0 0 0-.086-.134 4.734 4.734 0 0 1 .98 1.114c.509.822.721 1.788 1.147 2.66.515 1.055 3.372 4 2.142 5.181-.6.566-1.936.334-2.6.077a12.262 12.262 0 0 0-2.654-1.153c-1.49-.212-2.8.864-3.962 1.805s-2.681 1.865-4.069 1.323c-.667-.259-1.251-.843-1.966-.789a1.9 1.9 0 0 0-1.451 1.361c-.813 2.139.045 4.728-1.084 6.721-.667 1.171-1.9 1.9-2.723 2.979a5.064 5.064 0 0 0-1 2.383c-.218 1.519.262 3.054.214 4.588a8.032 8.032 0 0 1-5.86 7.058 7.47 7.47 0 0 0-2.738 1.055 7.88 7.88 0 0 0-1.68 2.815 8.242 8.242 0 0 1-9.006 4.153l.691-.781a8.331 8.331 0 0 0 7.414-4.37z" transform="translate(-916.112 -272.332)" style="opacity:.1"/>
                <path data-name="Path 1779" d="M947.056 351.115a60.11 60.11 0 0 1 2.44 6.31c.873-.34 1.665-2.505 1.665-2.505l-4.654-6.62c-.476.655-.163 1.743.549 2.815z" transform="translate(-915.531 -323.634)" style="opacity:.1"/>
                <path data-name="Path 1780" d="M947.656 350.522a60.115 60.115 0 0 1 2.44 6.31c.873-.337 1.665-2.505 1.665-2.505l-4.653-6.617c-.477.652-.164 1.743.548 2.812z" transform="translate(-916.309 -323.219)" style="fill:#dce7ff"/>
                <path data-name="Path 1781" d="m862.506 437.8 2.58-8.136a.76.76 0 0 0-.495-.956.763.763 0 0 0-.953.495l-2.58 8.127.256 1.7z" transform="translate(-804.103 -380.063)" style="fill:#be8b87"/>
                <path data-name="Path 1782" d="M865.256 428.977a.763.763 0 0 0-.956.495l-2.58 8.127.194 1.275-.188.2-.256-1.7 2.595-8.127a.763.763 0 0 1 .953-.495.763.763 0 0 1 .4.3 1.028 1.028 0 0 0-.162-.075z" transform="translate(-804.518 -380.091)" style="fill:#fff;opacity:.1"/>
                <path data-name="Path 1783" d="m824.048 399.6-1.448-.459.211 1.394.045.307.423-.441z" transform="translate(-765.645 -341.861)" style="fill:#efc8c4"/>
                <path data-name="Path 1784" d="M872.888 461.77a.3.3 0 0 0-.092-.077.131.131 0 0 0-.14 0 .363.363 0 0 0-.051.08.257.257 0 0 1-.185.122l.045.3z" transform="translate(-815.253 -403.231)" style="fill:#727a9c"/>
                <path data-name="Path 1785" d="M865.272 441.7s-5.175-.03-3.956 2.172a4.655 4.655 0 0 0 3.122 2.467z" transform="translate(-804.274 -389.209)" style="fill:#ffb0b1"/>
            </g>
            <path data-name="Path 1787" d="M564.834 278.648c.092.113.194.258.29.363a8.586 8.586 0 0 0 11.678-5.73l-4.126-.728-7.692.728c1.763 2.146 1.399 2.925-.15 5.367z" transform="translate(19700.843 -3038.336)" style="fill:#fff"/>
        </g>
        <g data-name="Group 93" transform="translate(20384.174 -2850.897)">
            <path data-name="Rectangle 243" transform="translate(0 .562)" style="fill:#3f3d56" d="M0 0h25.866v26.917H0z"/>
            <circle data-name="Ellipse 344" cx=".75" cy=".75" r=".75" transform="translate(18.931 11.222)" style="fill:#e8666d"/>
            <circle data-name="Ellipse 345" cx=".75" cy=".75" r=".75" transform="translate(16.12 8.598)" style="fill:#e8666d"/>
            <path data-name="Path 1296" d="M697.346 245.416a1.489 1.489 0 0 0-.781.221 4.707 4.707 0 0 0-.725-.85c0-.04.006-.08.006-.121a1.5 1.5 0 0 0-2.539-1.079 4.593 4.593 0 0 0-1.211-.011v-.035a1.5 1.5 0 1 0-2.485 1.128 4.709 4.709 0 0 0-.679.719 1.5 1.5 0 1 0-.959 2.652v.188a4.694 4.694 0 0 0 .135 1.119 2.81 2.81 0 1 0 3.668 3.483 4.68 4.68 0 0 0 3.063-.454 1.5 1.5 0 1 0 1.967-1.967 4.66 4.66 0 0 0 .534-1.994 1.5 1.5 0 1 0 0-3z" transform="translate(-680.852 -233.445)" style="fill:#e8666d"/>
            <path data-name="Rectangle 244" transform="translate(8.622)" style="fill:#e6e6e6" d="M0 0h7.497v1.125H0z"/>
        </g>
        <g data-name="Group 94" transform="translate(20450.76 -2850.547)">
            <path data-name="Rectangle 245" transform="translate(0 .559)" style="fill:#3f3d56" d="M0 0h25.866v27.097H0z"/>
            <g data-name="Group 86">
                <g data-name="Group 95" transform="translate(4.793 14.531)">
                    <circle data-name="Ellipse 346" cx=".554" cy=".554" r=".554" transform="translate(10.002 1.939)" style="fill:#3360a3"/>
                    <circle data-name="Ellipse 347" cx=".554" cy=".554" r=".554" transform="translate(7.911 .001)" style="fill:#3360a3"/>
                    <path data-name="Path 1297" d="M902.447 287.239a1.1 1.1 0 0 0-.577.163 3.477 3.477 0 0 0-.535-.628v-.089a1.106 1.106 0 0 0-1.875-.8 3.391 3.391 0 0 0-.894-.008v-.026a1.107 1.107 0 1 0-1.835.833 3.479 3.479 0 0 0-.5.531 1.107 1.107 0 1 0-.708 1.958v.139a3.461 3.461 0 0 0 .1.826 2.075 2.075 0 1 0 2.708 2.572 3.457 3.457 0 0 0 2.262-.336 1.107 1.107 0 1 0 1.452-1.452 3.441 3.441 0 0 0 .394-1.472 1.107 1.107 0 0 0 0-2.214z" transform="translate(-894.283 -284.747)" style="fill:#3360a3"/>
                </g>
            </g>
            <circle data-name="Ellipse 348" cx=".335" cy=".335" r=".335" transform="translate(20.157 10.956)" style="fill:#3360a3"/>
            <circle data-name="Ellipse 349" cx=".335" cy=".335" r=".335" transform="translate(20.979 9.428)" style="fill:#3360a3"/>
            <path data-name="Path 1298" d="M918.328 231.371a.667.667 0 0 0-.19-.309 2.1 2.1 0 0 0 .278-.415l.053-.012a.67.67 0 0 0 .157-1.223 2.053 2.053 0 0 0-.142-.522h.015a.67.67 0 1 0-.787-.933 2.1 2.1 0 0 0-.392-.205.67.67 0 1 0-1.257-.091l-.081.021a2.1 2.1 0 0 0-.465.194 1.256 1.256 0 1 0-1.054 2 2.092 2.092 0 0 0 .567 1.263.67.67 0 1 0 1.085.608 2.082 2.082 0 0 0 .922-.012.67.67 0 0 0 1.291-.363z" transform="translate(-898.231 -221.45)" style="fill:#3360a3"/>
            <path data-name="Rectangle 246" transform="translate(8.645)" style="fill:#e6e6e6" d="M0 0h7.448v1.117H0z"/>
        </g>
    </g>
</svg>
