<svg xmlns="http://www.w3.org/2000/svg" width="411" height="147" viewBox="0 0 411 147">
    <defs>
        <filter id="yv4f0dymsa" x="0" y="0" width="411" height="147" filterUnits="userSpaceOnUse">
            <feOffset dy="3"/>
            <feGaussianBlur stdDeviation="3" result="blur"/>
            <feFlood flood-opacity=".161"/>
            <feComposite operator="in" in2="blur"/>
            <feComposite in="SourceGraphic"/>
        </filter>
    </defs>
    <g style="filter:url(#yv4f0dymsa)">
        <rect data-name="Rectangle 423" width="393" height="129" rx="10" transform="translate(9 6)" style="fill:#fff"/>
    </g>
    <text data-name="Michigan residents and the general public" transform="translate(91 83.008)" style="font-family:Open Sans;fill:#111;font-size:14px"><tspan x="0" y="15">Michigan residents and the general public</tspan></text>
    <path data-name="Path 1897" d="M0 0h37.016v37.016H0z" style="fill:none" transform="translate(39 36)"/>
    <path data-name="Path 1898" d="M24.135 14.254a4.627 4.627 0 1 0-4.627-4.627 4.608 4.608 0 0 0 4.627 4.627zm-12.339 0a4.627 4.627 0 1 0-4.627-4.627 4.608 4.608 0 0 0 4.631 4.627zm0 3.085c-3.594 0-10.8 1.8-10.8 5.4v3.856h21.596v-3.858c0-3.594-7.202-5.398-10.792-5.398zm12.339 0c-.447 0-.956.031-1.5.077a6.508 6.508 0 0 1 3.038 5.321v3.856h9.254v-3.856c.004-3.594-7.199-5.398-10.792-5.398z" transform="translate(39.542 38.712)" style="fill:#3360a3"/>
    <text data-name="Group 2: public" transform="translate(91 62)" style="font-size:18px;font-weight:600;fill:#3360a3;font-family:Open Sans"><tspan x="0" y="0">GROUP 2: PUBLIC</tspan></text>
</svg>
