<svg xmlns="http://www.w3.org/2000/svg" width="393" height="129" viewBox="0 0 393 129">
  <g id="msm-group1-government" transform="translate(-103 -2250)">
    <rect id="Rectangle_423" data-name="Rectangle 423" width="393" height="129" rx="10" transform="translate(103 2250)" fill="#fff"/>
    <text id="Public_health_government_decision-makers" data-name="Public health &amp; government decision-makers" transform="translate(185 2344.008)" fill="#111" font-size="14" font-family="Open Sans"><tspan x="0" y="0">Public health &amp; government decision-makers</tspan></text>
    <g id="people_black_24dp" transform="translate(133 2280)">
      <path id="Path_1897" data-name="Path 1897" d="M0,0H37.016V37.016H0Z" fill="none"/>
      <path id="Path_1898" data-name="Path 1898" d="M24.135,14.254a4.627,4.627,0,1,0-4.627-4.627A4.608,4.608,0,0,0,24.135,14.254Zm-12.339,0A4.627,4.627,0,1,0,7.169,9.627,4.608,4.608,0,0,0,11.8,14.254Zm0,3.085c-3.594,0-10.8,1.8-10.8,5.4v3.856H22.592V22.737C22.592,19.143,15.39,17.339,11.8,17.339Zm12.339,0c-.447,0-.956.031-1.5.077a6.508,6.508,0,0,1,3.038,5.321v3.856h9.254V22.737C34.931,19.143,27.728,17.339,24.135,17.339Z" transform="translate(0.542 2.712)" fill="#3360a3"/>
    </g>
    <text id="Group_1:_Government" data-name="Group 1: Government" transform="translate(185 2306)" fill="#3360a3" font-size="18" font-family="Open Sans" font-weight="600"><tspan x="0" y="0">GROUP 1: GOVERNMENT</tspan></text>
  </g>
</svg>
