<svg xmlns="http://www.w3.org/2000/svg" width="631" height="446" viewBox="0 0 631 446">
    <g data-name="SRD section graphic">
        <path data-name="light background" d="M0 0h408a223 223 0 0 1 223 223 223 223 0 0 1-223 223H0V0z" style="fill:#f6f7fa"/>
        <path data-name="dark background" d="M0 0h408a193 193 0 0 1 193 193 193 193 0 0 1-193 193H0V0z" transform="translate(0 30)" style="fill:#dee2e8;opacity:.75"/>
        <g data-name="senior resource directory image" style="opacity:.98">
            <g data-name="Group 64" transform="translate(103 70)">
                <g data-name="Group 67">
                    <path data-name="Path 1163" d="M917.767 491.532a239.873 239.873 0 0 0 30.823-2.261c.359-.05.717-.1 1.076-.153l-.54-96.575a46.166 46.166 0 0 0-4.815-3.355c-6.189-3.729-13.435-5.436-18.434-3.725l-.078.031a8.771 8.771 0 0 0-2.975 1.712c-4.391 3.9-3.658 11.786-.115 18.942-7.026-6.419-15.891-11.529-23.8-11.918-7.719-.381-13.233 3.655-17.919 8.033-.155.144-.305.287-.456.431-.078.07-.151.144-.228.213-3.571 3.416-7.091 7.4-6.665 13.161.468 6.321 5.762 13.329 11.932 18.243s13.169 8.179 20 11.489 13.837 6.9 19.675 12.217c-9.111-7.2-19.476-13.01-29.558-15.155s-19.764-.257-24.512 6.162a15.017 15.017 0 0 0-2.654 6.577c-.046.277-.083.558-.116.844-.676 5.943 1.379 13.038 6.292 19.075 5.409 6.648 13.428 11.257 21.041 13.551s14.941 2.535 22.026 2.461z" transform="translate(-868.283 -384.795)" style="fill:#f2f2f2"/>
                    <path data-name="Path 1164" d="m882.07 410.983-.006-1.022q-.3-.487-.6-.978c-.128-.2-.251-.408-.377-.613q-3.105-5.084-5.957-10.231t-5.444-10.339a.428.428 0 0 0-.49-.246.121.121 0 0 0-.036.017c-.091.048-.128.156-.051.314.213.425.426.852.644 1.277q2.635 5.208 5.534 10.372t6.05 10.262l.133.215z" transform="translate(-800.875 -339.201)" style="fill:#fff"/>
                    <path data-name="Path 1165" d="M906.9 452.75v-.632l-.6-.425-14.085-10.042q-11.53-8.221-23.059-16.437a.4.4 0 0 0-.139-.071c-.17-.047-.27.078-.252.238a.48.48 0 0 0 .212.334l12.927 9.216 22.941 16.354 1.459 1.04c.196.142.396.285.596.425z" transform="translate(-825.63 -367.793)" style="fill:#fff"/>
                    <path data-name="Path 1166" d="M909.722 560.654a51.48 51.48 0 0 0 3.151-.195l.6-.054v-.663c-.2.02-.4.041-.6.058-1.5.14-3.016.24-4.574.253a63.8 63.8 0 0 1-12.863-1.256 80.086 80.086 0 0 1-13.364-3.891 91.76 91.76 0 0 1-13.222-6.366.355.355 0 0 0-.235-.059c-.189.027-.245.279-.064.467a.55.55 0 0 0 .12.095q.789.459 1.582.9a91.736 91.736 0 0 0 13.268 6.093 79.709 79.709 0 0 0 13.384 3.627 62.938 62.938 0 0 0 12.817.991z" transform="translate(-832.122 -461.622)" style="fill:#fff"/>
                </g>
                <path data-name="Path 1167" d="M393.726 208.674H248.464a2.089 2.089 0 0 0-2.087 2.087v98.434a2.089 2.089 0 0 0 2.087 2.087h145.262a2.085 2.085 0 0 0 1.587-.732.484.484 0 0 0 .045-.057 1.951 1.951 0 0 0 .3-.505 2.035 2.035 0 0 0 .158-.792v-98.435a2.089 2.089 0 0 0-2.09-2.087zm1.493 100.521a1.479 1.479 0 0 1-.247.818 1.543 1.543 0 0 1-.565.507 1.481 1.481 0 0 1-.682.165H248.464a1.493 1.493 0 0 1-1.491-1.491v-98.433a1.493 1.493 0 0 1 1.491-1.491h145.262a1.493 1.493 0 0 1 1.493 1.491z" transform="translate(-165.688 -206.346)" style="fill:#3f3d56"/>
                <path data-name="Rectangle 229" transform="translate(80.986 10.692)" style="fill:#3f3d56" d="M0 0h148.842v.597H0z"/>
                <circle data-name="Ellipse 309" cx="1.79" cy="1.79" r="1.79" transform="translate(84.267 5.013)" style="fill:#3f3d56"/>
                <circle data-name="Ellipse 310" cx="1.79" cy="1.79" r="1.79" transform="translate(89.413 5.013)" style="fill:#3f3d56"/>
                <circle data-name="Ellipse 311" cx="1.79" cy="1.79" r="1.79" transform="translate(94.558 5.013)" style="fill:#3f3d56"/>
                <path data-name="Path 1168" d="M467.473 281.548h-74.666a3.111 3.111 0 1 1 0-6.222h74.666a3.111 3.111 0 0 1 0 6.222zm-74.666-5.748a2.632 2.632 0 1 0 0 5.265h74.666a2.632 2.632 0 0 0 0-5.265z" transform="translate(-274.709 -257.047)" style="fill:#3f3d56"/>
                <path data-name="Path 1169" d="M377.918 368.655h-6.7a1.914 1.914 0 1 1 0-3.829h6.7a1.914 1.914 0 1 1 0 3.829z" transform="translate(-259.196 -325.129)" style="fill:#ccc"/>
                <path data-name="Path 1170" d="M385.815 395.655h-14.6a1.915 1.915 0 1 1 0-3.829h14.6a1.915 1.915 0 0 1 0 3.829z" transform="translate(-259.196 -345.667)" style="fill:#ccc"/>
                <path data-name="Path 1171" d="M382.918 486.655h-6.7a1.914 1.914 0 0 1 0-3.829h6.7a1.914 1.914 0 1 1 0 3.829z" transform="translate(-262.999 -414.89)" style="fill:#ccc"/>
                <path data-name="Path 1172" d="M390.815 513.655h-14.6a1.914 1.914 0 1 1 0-3.829h14.6a1.914 1.914 0 1 1 0 3.829z" transform="translate(-262.999 -435.428)" style="fill:#ccc"/>
                <path data-name="Path 1173" d="M566.918 483.655h-6.7a1.914 1.914 0 0 1 0-3.829h6.7a1.914 1.914 0 0 1 0 3.829z" transform="translate(-402.966 -412.608)" style="fill:#ccc"/>
                <path data-name="Path 1174" d="M574.815 510.655h-14.6a1.914 1.914 0 0 1 0-3.829h14.6a1.914 1.914 0 1 1 0 3.829z" transform="translate(-402.966 -433.146)" style="fill:#ccc"/>
                <path data-name="Path 1175" d="M563.918 373.655h-6.7a1.914 1.914 0 0 1 0-3.829h6.7a1.914 1.914 0 1 1 0 3.829z" transform="translate(-400.684 -328.932)" style="fill:#ccc"/>
                <path data-name="Path 1176" d="M571.815 400.655h-14.6a1.915 1.915 0 0 1 0-3.829h14.6a1.915 1.915 0 0 1 0 3.829z" transform="translate(-400.684 -349.471)" style="fill:#ccc"/>
                <path data-name="Path 1177" d="M750.918 367.655h-6.7a1.914 1.914 0 1 1 0-3.829h6.7a1.914 1.914 0 1 1 0 3.829z" transform="translate(-542.932 -324.368)" style="fill:#ccc"/>
                <path data-name="Path 1178" d="M758.815 394.655h-14.6a1.914 1.914 0 1 1 0-3.829h14.6a1.914 1.914 0 0 1 0 3.829z" transform="translate(-542.932 -344.906)" style="fill:#ccc"/>
                <circle data-name="Ellipse 312" cx="7.179" cy="7.179" r="7.179" transform="translate(93.019 37.663)" style="fill:#3360a3"/>
                <path data-name="Path 1179" d="M318.32 379.288h-6.7a.719.719 0 0 1-.718-.718v-5.026a.719.719 0 0 1 .718-.718h1.886a.713.713 0 0 1 .611.342l.526.855h3.677a.719.719 0 0 1 .718.718v3.829a.719.719 0 0 1-.718.718zm-6.7-5.983a.24.24 0 0 0-.239.239v5.026a.24.24 0 0 0 .239.239h6.7a.24.24 0 0 0 .239-.239v-3.829a.24.24 0 0 0-.239-.239h-3.944l-.666-1.083a.238.238 0 0 0-.2-.114z" transform="translate(-214.771 -331.214)" style="fill:#fff"/>
                <circle data-name="Ellipse 313" cx="7.179" cy="7.179" r="7.179" transform="translate(137.053 38.86)" style="fill:#3360a3"/>
                <path data-name="Path 1180" d="M502.841 381.42h-6.222a.719.719 0 0 1-.718-.718v-7.658a.719.719 0 0 1 .718-.718h4.508a.72.72 0 0 1 .45.158l1.713 1.377a.714.714 0 0 1 .268.56v6.279a.719.719 0 0 1-.717.72zm-6.222-8.615a.24.24 0 0 0-.239.239v7.656a.24.24 0 0 0 .239.239h6.222a.239.239 0 0 0 .239-.239v-6.281a.237.237 0 0 0-.089-.186l-1.714-1.377a.24.24 0 0 0-.15-.053z" transform="translate(-355.498 -330.834)" style="fill:#fff"/>
                <path data-name="Path 1181" d="M506.969 384.8h-3.829a.239.239 0 1 1 0-.479h3.829a.239.239 0 1 1 0 .479z" transform="translate(-360.823 -339.962)" style="fill:#fff"/>
                <path data-name="Path 1182" d="M506.969 390.8h-3.829a.239.239 0 1 1 0-.479h3.829a.239.239 0 1 1 0 .479z" transform="translate(-360.823 -344.526)" style="fill:#fff"/>
                <path data-name="Path 1183" d="M506.969 396.8h-3.829a.239.239 0 1 1 0-.479h3.829a.239.239 0 1 1 0 .479z" transform="translate(-360.823 -349.09)" style="fill:#fff"/>
                <circle data-name="Ellipse 314" cx="7.179" cy="7.179" r="7.179" transform="translate(181.326 37.424)" style="fill:#3360a3"/>
                <path data-name="Path 1184" d="M687.319 379.591h-6.7a.719.719 0 0 1-.718-.718v-3.829a.719.719 0 0 1 .718-.718h6.7a.719.719 0 0 1 .718.718v3.829a.719.719 0 0 1-.718.718zm-6.7-4.786a.24.24 0 0 0-.239.239v3.829a.24.24 0 0 0 .239.239h6.7a.24.24 0 0 0 .239-.239v-3.829a.24.24 0 0 0-.239-.239z" transform="translate(-495.464 -332.355)" style="fill:#fff"/>
                <path data-name="Path 1185" d="M683.968 379.111a.721.721 0 0 1-.381-.108l-3.575-2.235a.239.239 0 1 1 .254-.406l3.575 2.234a.24.24 0 0 0 .253 0l3.575-2.235a.239.239 0 0 1 .254.406L684.349 379a.719.719 0 0 1-.381.108z" transform="translate(-495.463 -333.876)" style="fill:#fff"/>
                <circle data-name="Ellipse 315" cx="7.179" cy="7.179" r="7.179" transform="translate(93.019 65.902)" style="fill:#3360a3"/>
                <path data-name="Path 1186" d="M318.32 498.591h-6.7a.719.719 0 0 1-.718-.718v-3.829a.719.719 0 0 1 .718-.718h6.7a.719.719 0 0 1 .718.718v3.829a.719.719 0 0 1-.718.718zm-6.7-4.786a.239.239 0 0 0-.239.239v3.829a.24.24 0 0 0 .239.239h6.7a.24.24 0 0 0 .239-.239v-3.829a.239.239 0 0 0-.239-.239z" transform="translate(-214.771 -422.877)" style="fill:#fff"/>
                <path data-name="Path 1187" d="M320.633 504.3h-4.816a.479.479 0 0 1-.414-.718l1.451-2.513a.479.479 0 0 1 .829 0l.937 1.623.543-.94a.479.479 0 0 1 .829 0l1.056 1.83a.479.479 0 0 1-.414.718zm0-.479-1.057-1.83-.75 1.3a.239.239 0 0 1-.207.12.239.239 0 0 1-.207-.12l-1.144-1.982-1.451 2.513z" transform="translate(-218.146 -428.582)" style="fill:#fff"/>
                <circle data-name="Ellipse 316" cx=".479" cy=".479" r=".479" transform="translate(102.352 71.406)" style="fill:#fff"/>
                <circle data-name="Ellipse 317" cx="7.179" cy="7.179" r="7.179" transform="translate(137.531 65.184)" style="fill:#3360a3"/>
                <path data-name="Path 1188" d="M507.055 488.134a2.154 2.154 0 1 1 2.154-2.154 2.154 2.154 0 0 1-2.154 2.154zm0-3.829a1.675 1.675 0 1 0 1.675 1.675 1.675 1.675 0 0 0-1.675-1.68z" transform="translate(-362.344 -415.65)" style="fill:#fff"/>
                <path data-name="Path 1189" d="M507.068 507.416h-3.829a.839.839 0 0 1-.838-.838 2.752 2.752 0 0 1 5.5 0 .839.839 0 0 1-.833.838zm-1.915-3.111a2.276 2.276 0 0 0-2.274 2.273.359.359 0 0 0 .359.359h3.829a.359.359 0 0 0 .359-.359 2.276 2.276 0 0 0-2.273-2.278z" transform="translate(-360.442 -430.864)" style="fill:#fff"/>
            </g>
            <g data-name="Group 66" transform="translate(263.879 107.373)">
                <path data-name="Path 1115" d="M970.86 445.812a8.351 8.351 0 1 1 6.553-14.657l-2.206 3.695 3.527-2.294a8.32 8.32 0 0 1 1.57 6.168 8.184 8.184 0 0 1-.639 2.219 8.35 8.35 0 0 1-8.805 4.869z" transform="translate(-743.489 -305.915)" style="fill:#e8666d"/>
                <path data-name="Path 1116" d="M895.175 466.721c2.353-2.888 1.133-7.211-.588-10.516s-3.915-6.82-3.159-10.467c1.087-5.242 7.261-7.283 12.252-9.22a50.282 50.282 0 0 0 10.486-5.577 13.56 13.56 0 0 0 3.507-3.208 15.463 15.463 0 0 0 2.106-6.488q1.856-11.311 3.176-22.7" transform="translate(-700.135 -287.58)" style="stroke:#3f3d56;stroke-miterlimit:10;fill:none"/>
                <path data-name="Path 1117" d="M971.4 442.975a8.351 8.351 0 1 1 6.553-14.657l-2.207 3.695 3.528-2.294a8.319 8.319 0 0 1 1.57 6.167 8.189 8.189 0 0 1-.639 2.22 8.349 8.349 0 0 1-8.805 4.869z" transform="translate(-743.812 -304.215)" style="stroke:#3f3d56;stroke-miterlimit:10;fill:none"/>
                <path data-name="Path 1118" d="M966.038 391.114a8.341 8.341 0 0 0-2.813-7.5L960.7 386.9l.894-4.387a8.35 8.35 0 1 0 4.448 8.605z" transform="translate(-734.949 -277.391)" style="fill:#e8666d"/>
                <path data-name="Path 1119" d="M966.759 387.331a8.341 8.341 0 0 0-2.813-7.5l-2.529 3.282.894-4.387a8.35 8.35 0 1 0 4.448 8.605z" transform="translate(-735.382 -275.124)" style="stroke:#3f3d56;stroke-miterlimit:10;fill:none"/>
                <path data-name="Path 1120" d="M914.62 470.332a8.35 8.35 0 0 1 .466-16.586l-.687 3.371 2.558-3.322h.022a8.351 8.351 0 0 1-2.36 16.534z" transform="translate(-709.82 -320.626)" style="fill:#e8666d"/>
                <path data-name="Path 1121" d="M915.5 466.58a8.35 8.35 0 0 1 .466-16.586l-.687 3.371 2.558-3.322h.023a8.351 8.351 0 0 1-2.36 16.534z" transform="translate(-710.346 -318.378)" style="stroke:#3f3d56;stroke-miterlimit:10;fill:none"/>
                <path data-name="Path 1122" d="M905.914 515.646a8.347 8.347 0 1 1 1.656-6.528l-5.918 3.192 5.884-.231a8.269 8.269 0 0 1-1.623 3.568z" transform="translate(-699.965 -349.632)" style="fill:#e8666d"/>
                <path data-name="Path 1123" d="M906.455 512.809a8.347 8.347 0 1 1 1.656-6.528l-5.918 3.191 5.885-.231a8.273 8.273 0 0 1-1.623 3.568z" transform="translate(-700.289 -347.932)" style="stroke:#3f3d56;stroke-miterlimit:10;fill:none"/>
                <ellipse data-name="Ellipse 303" cx="34.709" cy="39.363" rx="34.709" ry="39.363" transform="translate(73.117 144.459)" style="fill:#36334a"/>
                <path data-name="Path 1124" d="M755.111 233.323a56.631 56.631 0 0 1-26.514 4.593 11.754 11.754 0 0 0 4.432-7.135 20 20 0 0 0-.25-8.523 1.392 1.392 0 0 1 .019-.984 1.357 1.357 0 0 1 1.06-.5c3.516-.489 13.586-2.614 16.263.4 1.269 1.426.783 4.2 1.246 5.939.191.71 2.638 6.694 3.744 6.21z" transform="translate(-602.732 -180.289)" style="fill:#fbbebe"/>
                <path data-name="Path 1125" d="M755.111 233.323a56.631 56.631 0 0 1-26.514 4.593 11.754 11.754 0 0 0 4.432-7.135 20 20 0 0 0-.25-8.523 1.392 1.392 0 0 1 .019-.984 1.357 1.357 0 0 1 1.06-.5c3.516-.489 13.586-2.614 16.263.4 1.269 1.426.783 4.2 1.246 5.939.191.71 2.638 6.694 3.744 6.21z" transform="translate(-602.732 -180.289)" style="opacity:.1"/>
                <path data-name="Path 1126" d="m609.32 402.75-52.163 1.605s-46.144 44.941-8.025 58.583c0 0 46.947 7.624 58.182-1.2 0-.003 14.044-55.377 2.006-58.988zm-2.407 14.85-55.775 3.611s4.013-13.643 20.063-13.643 34.107-3.611 35.712 4.815 0 5.217 0 5.217z" transform="translate(-486.247 -290.098)" style="fill:#3f3d56"/>
                <path data-name="Path 1127" d="M598.122 384.345c-2.6-.4-5.431-.628-7.709.689a12.282 12.282 0 0 0-2.1 1.658q-1.375 1.262-2.728 2.547a4.417 4.417 0 0 0-1.52 2.211c-.348 1.839 1.776 3.321 3.647 3.249s3.549-1.1 5.315-1.719c3.558-1.247 16.642.885 17.357-2.947.909-4.872-9.368-5.228-12.262-5.688z" transform="translate(-516.172 -278.856)" style="fill:#fbbebe"/>
                <path data-name="Path 1128" d="M656.327 374.5a29.52 29.52 0 0 1-10.91 3.1 4.6 4.6 0 0 0-1.726.367 1.744 1.744 0 0 0-.72.875 26.044 26.044 0 0 0-2.439 8.9.8.8 0 0 0 .282.813 2.5 2.5 0 0 0 1.179.265q9.364.594 18.79.638a1.962 1.962 0 0 0 .818-.111.767.767 0 0 0 .376-.465 28.471 28.471 0 0 0 2.041-11.548c-.163-4.649-1.524-6.105-7.691-2.834z" transform="translate(-549.992 -272.088)" style="fill:#d7e5f2"/>
                <path data-name="Path 1129" d="M656.327 374.5a29.52 29.52 0 0 1-10.91 3.1 4.6 4.6 0 0 0-1.726.367 1.744 1.744 0 0 0-.72.875 26.044 26.044 0 0 0-2.439 8.9.8.8 0 0 0 .282.813 2.5 2.5 0 0 0 1.179.265q9.364.594 18.79.638a1.962 1.962 0 0 0 .818-.111.767.767 0 0 0 .376-.465 28.471 28.471 0 0 0 2.041-11.548c-.163-4.649-1.524-6.105-7.691-2.834z" transform="translate(-549.992 -272.088)" style="fill:#6e669f;opacity:.421"/>
                <path data-name="Path 1130" d="m752.256 375.99-68.615-2.408 16.05-67.812s64.2-4.815 62.6 11.636-10.035 58.584-10.035 58.584z" transform="translate(-575.816 -231.594)" style="fill:#36334a"/>
                <path data-name="Path 1131" d="M602.74 521.484s-41.3 7.308-56.143-14.359 56.176-10.031 56.176-10.031l6.019 16.452z" transform="translate(-492.539 -344.735)" style="fill:#36334a"/>
                <circle data-name="Ellipse 304" cx="18.859" cy="18.859" r="18.859" transform="translate(78.935 230.909)" style="fill:#36334a"/>
                <ellipse data-name="Ellipse 305" cx="11.837" cy="13.643" rx="11.837" ry="13.643" transform="translate(87.763 236.125)" style="fill:#3f3d56"/>
                <path data-name="Path 1132" d="M871.335 298.983s-15.649-8.828-16.452 12.038l-13.241 97.1h5.618L862.507 304.2s7.624 1.2 8.828 1.2 0-6.417 0-6.417z" transform="translate(-670.417 -226.831)" style="fill:#3f3d56"/>
                <path data-name="Path 1133" d="M919.817 309.7a3.752 3.752 0 0 1-5.091 2.446l-18.153-7.761 3.293-7.254 17.891 8.149a3.753 3.753 0 0 1 2.06 4.42z" transform="translate(-703.307 -226.789)" style="fill:#36334a"/>
                <path data-name="Path 1134" d="M571.868 556.58s-28.89-3.21-36.916 24.477-7.223 48.953-14.044 47.348-21.267-7.223-21.267-7.223l1.2 8.426s25.279 12.84 29.292-.8 6.42-63.8 29.292-62.6 26.884-1.2 26.884-1.2z" transform="translate(-465.647 -382.249)" style="fill:#3f3d56"/>
                <path data-name="Path 1135" d="M476.181 523.75s-22.47 2.809-31.3 19.26-13.242 46.144-13.242 46.144h8.426s4.815-58.985 30.094-55.774z" transform="translate(-424.932 -362.608)" style="fill:#3f3d56"/>
                <path data-name="Path 1136" d="m451.287 703.054-35.712-22.069s-2.006-8.025 20.865-11.235c0 0 43.242 15.123 39.076 20.8s-18.211 14.51-24.229 12.504z" transform="translate(-415.286 -450.076)" style="fill:#36334a"/>
                <path data-name="Path 1137" d="M448.5 464.8v46.947h5.216V464z" transform="translate(-357.126 -283.603)" style="fill:#3f3d56"/>
                <path data-name="Path 1138" d="M644.877 645.75s10.031 39.323 3.611 44.941c0 0-8.427-24.878-14.846-21.668l2.006-23.273z" transform="translate(-545.879 -435.707)" style="fill:#36334a"/>
                <circle data-name="Ellipse 306" cx="15.649" cy="15.649" r="15.649" transform="translate(122.271 15.286)" style="fill:#fbbebe"/>
                <path data-name="Path 1139" d="M702.882 249.813c6.382 1.084 11.9-6.335 18.286-5.292a12.269 12.269 0 0 1 3.93 1.546 38.984 38.984 0 0 1 18.79 25.166c.722 3.218 1 6.708-.358 9.714a18.466 18.466 0 0 1-3.009 4.291c-4.25 4.943-8.915 9.87-14.98 12.262-.592 2.052-.024 4.274.687 6.288 2.966 8.41-1.75 17.473-1.991 26.387-.041 1.525 0 3.2-.949 4.386-1.059 1.322-2.948 1.556-4.639 1.652-15.495.873-30.968-1.5-46.305-3.874a2.327 2.327 0 0 1-1.125-.381 2.7 2.7 0 0 1-.688-1.759c-.569-3.368 2.422-6.1 1-9.207-2.438-5.342 2.88-11.184 4.414-16.853s2.138-6.665 3.21-12.439c.4-2.159-.754-8.667-.4-10.834 1.151-7.079.281-15.142 4.013-21.267 2.242-3.68 1.66-6.541 5.661-8.141 4.224-1.687 9.937-1.119 14.453-1.645z" transform="translate(-567.922 -195.23)" style="fill:#cfcce0"/>
                <path data-name="Path 1140" d="M505.7 471.155c-4.672.9-9.632 1.76-13.227 4.876a25.674 25.674 0 0 0-5.105 7.011l-14.626 25.787c-4.461 7.865-8.924 15.734-12.968 23.82a4.294 4.294 0 0 0-.6 1.937 3.954 3.954 0 0 0 1.329 2.495 21.331 21.331 0 0 0 18.058 6.35c1.006-5.209 5.957-8.652 8.384-13.37 1.334-2.592 1.869-5.507 2.73-8.293 3.211-10.388 10.832-18.73 18.232-26.7 3.5-3.765 7.077-7.6 11.583-10.067 5.286-2.9 11.42-3.7 17.327-4.9s12.024-3.029 16.2-7.374a17.4 17.4 0 0 0 4.633-14.172c-3.785-.265-8-.757-11.647.46-4.24 1.414-8.341 3.346-12.587 4.79a209.123 209.123 0 0 1-27.716 7.35z" transform="translate(-441.418 -323.363)" style="fill:#696880"/>
                <path data-name="Path 1141" d="M505.7 471.155c-4.672.9-9.632 1.76-13.227 4.876a25.674 25.674 0 0 0-5.105 7.011l-14.626 25.787c-4.461 7.865-8.924 15.734-12.968 23.82a4.294 4.294 0 0 0-.6 1.937 3.954 3.954 0 0 0 1.329 2.495 21.331 21.331 0 0 0 18.058 6.35c1.006-5.209 5.957-8.652 8.384-13.37 1.334-2.592 1.869-5.507 2.73-8.293 3.211-10.388 10.832-18.73 18.232-26.7 3.5-3.765 7.077-7.6 11.583-10.067 5.286-2.9 11.42-3.7 17.327-4.9s12.024-3.029 16.2-7.374a17.4 17.4 0 0 0 4.633-14.172c-3.785-.265-8-.757-11.647.46-4.24 1.414-8.341 3.346-12.587 4.79a209.123 209.123 0 0 1-27.716 7.35z" transform="translate(-441.418 -323.363)" style="opacity:.1"/>
                <path data-name="Path 1142" d="M416.152 671.6a3.285 3.285 0 0 0-1.152 1.488c-.531 1.81 1.734 3.085 3.546 3.606 4.072 1.172 8.416 2.346 12.478 1.138 2.491-.74 4.658-2.327 7.133-3.12 3.672-1.177 7.65-.508 11.446.17a24.775 24.775 0 0 0-1.641-14.141c-1.218-2.809-6.093-4.177-9-4.3-3.173-.135-4.275 2.206-6.107 4.361-4.455 5.248-11.564 6.465-16.703 10.798z" transform="translate(-414.921 -442.104)" style="fill:#3f3d56"/>
                <path data-name="Path 1143" d="M540.554 479.664a19.381 19.381 0 0 0-6.308 3.476 18.428 18.428 0 0 0-3.94 6.492 181.321 181.321 0 0 0-7.476 21.324c-1.034 3.666-1.955 7.375-3.348 10.921-2.78 7.077-7.5 13.854-7.054 21.444a5.086 5.086 0 0 0 .718 2.62 6.018 6.018 0 0 0 2.719 1.841l5.335 2.318c2.863 1.243 6.357 2.439 8.915.65 1.712-1.2 2.4-3.368 2.912-5.392 1.865-7.309 3.017-14.9 6.359-21.665 3.776-7.644 10.162-13.821 13.541-21.649a7.507 7.507 0 0 1 1.872-3.053 6.635 6.635 0 0 1 2.756-1.089c20.039-4.563 40.53-7.059 60.409-12.276 2.826-.742 5.783-1.622 7.8-3.737 2.8-2.932 3.045-7.389 3.134-11.44.056-2.538.044-5.3-1.5-7.308-1.744-2.27-4.871-2.87-7.718-3.169-10.92-1.149-20.991.661-31.746 1.986-9.84 1.213-19.751 6.767-28.931 10.4q-9.23 3.642-18.449 7.306z" transform="translate(-473.286 -324.193)" style="fill:#696880"/>
                <path data-name="Path 1144" d="M507.405 679.757c-1.5 3.564-3.12 7.286-6.164 9.67-1.271 1-2.916 1.993-2.967 3.608-.054 1.708 1.74 2.836 3.348 3.416 4.095 1.477 8.754 1.793 12.749.065a27.035 27.035 0 0 0 7.184-5.232 5.674 5.674 0 0 0 1.658-2.084 5.392 5.392 0 0 0 .186-2.188 56.086 56.086 0 0 0-2.368-13.137c-.1-.335-8.735-1.412-9.5-1.212-2.411.628-3.196 4.886-4.126 7.094z" transform="translate(-464.827 -451.805)" style="fill:#3f3d56"/>
                <path data-name="Path 1145" d="m743.32 432.75-52.163 1.605s-46.144 44.941-8.025 58.583c0 0 46.947 7.624 58.182-1.2 0-.003 14.044-55.377 2.006-58.988zm-2.408 14.85-55.775 3.611s4.013-13.643 20.063-13.643 34.107-3.611 35.712 4.815 0 5.217 0 5.217z" transform="translate(-566.478 -308.075)" style="fill:#3f3d56"/>
                <ellipse data-name="Ellipse 307" cx="52.364" cy="59.386" rx="52.364" ry="59.386" transform="translate(112.64 149.855)" style="fill:#36334a"/>
                <ellipse data-name="Ellipse 308" cx="39.524" cy="44.138" rx="39.524" ry="44.138" transform="translate(127.888 165.103)" style="fill:#3f3d56"/>
                <path data-name="Path 1146" d="M782.2 565.648a11.744 11.744 0 0 0-.229-2.293l29.521-14.76-2.006-4.414-29.821 14.528a6.226 6.226 0 0 0-.991-.828l.023.005 8.72-43.4-7.713-.175-5.127 42.708.492.1a4.817 4.817 0 0 0-1.15.393l-25.791-26.473-3.645 5.112 26.5 24.378a10.654 10.654 0 0 0-1.173 4.109l-37.363 15.25-.8 6.42 38.946-16.379a8.513 8.513 0 0 0 1.522 2.46l-11.979 40.8h4.414l10.05-39.134a4.577 4.577 0 0 0 1.381.221 4.781 4.781 0 0 0 2.55-.764l20.923 27.649 6.42-4.414-24.515-26.779a11.22 11.22 0 0 0 .841-4.319z" transform="translate(-604.555 -357.01)" style="fill:#36334a"/>
                <path data-name="Path 1147" d="M.373 14.463c.707-1.775 2.987-2.509 3.733-4.268.8-1.891-.456-4.3.637-6.039s3.667-1.548 5.709-1.209c2.411.4 4.975.669 7.225-.288 1-.426 1.888-1.075 2.857-1.568A10.091 10.091 0 0 1 25.513.009a2.26 2.26 0 0 1 1.117.267 2.093 2.093 0 0 1 .725.936c.7 1.524.8 3.426 2.078 4.519a8.7 8.7 0 0 0 2.138 1.109 9.259 9.259 0 0 1 5.191 9.238 18.786 18.786 0 0 0-.316 2.646c.05 1.951 2.118 3.575 1.467 5.415-.462 1.3-1.763 2.869-1.991 2.135-.66-1.972-6.939-4.373-9.018-4.33-1.619.069-3.256.978-4.784.437a6.366 6.366 0 0 1-1.938-1.369 9.594 9.594 0 0 0-4.827-2.463 5.161 5.161 0 0 0-4.892 1.844c-.431.6-.693 1.309-1.1 1.924-1.5 2.238-4.807 6.729-6.657 5.335C.208 25.771-.536 16.744.373 14.463z" transform="rotate(47 71.043 163.387)" style="fill:#cecece"/>
                <path data-name="Path 1148" d="M716.727 411.234a4.258 4.258 0 0 0-3.727 1.387c-3.511 3.2-7.233 6.8-7.869 11.512a1.939 1.939 0 0 0 .146 1.275 1.98 1.98 0 0 0 1.73.687 11.514 11.514 0 0 0 8.7-3.843 6.677 6.677 0 0 1 1.98-1.85 5.164 5.164 0 0 1 2.365-.293c2.2.072 7.233 1.2 9.153.107 2.019-1.149 1.464-4.751.521-6.487-2.235-4.129-9.184-2.536-12.999-2.495z" transform="translate(-588.655 -294.953)" style="fill:#fbbebe"/>
                <path data-name="Path 1149" d="M792.177 310.54c1.349 4.34.559 9.229 2.471 13.353 1.269 2.737 3.655 4.943 4.394 7.869a10.083 10.083 0 0 1-1.878 8.074 26.782 26.782 0 0 1-6.216 5.819 30.3 30.3 0 0 1-8.07 4.676 33.223 33.223 0 0 1-9.218 1.3l-20.617.945-3.8-11.384 13.434-5.262a14.5 14.5 0 0 1 4.154-1.166c2.486-.184 5.519.729 7.116-1.186a5.186 5.186 0 0 0 .938-2.384c1.3-6.688.169-13.764 2.174-20.276.993-3.223 3.857-9.688 7.763-10.257 4.143-.608 6.419 6.867 7.355 9.879z" transform="translate(-615.095 -228.894)" style="fill:#cfcce0"/>
                <path data-name="Path 1155" d="m0 0 2.093.973 1.975.184L5.911.529" transform="rotate(-180 65.58 12.043)" style="stroke:rgba(237,217,217,.99);fill:none"/>
                <path data-name="Path 1157" d="m0 0 1.294.6 1.222.116 1.14-.389" transform="rotate(-180 64.937 12.445)" style="stroke:rgba(237,217,217,.99);fill:none"/>
                <path data-name="Path 1154" d="m0 0 2.361.4L6.027 0" transform="rotate(-8.88 357.187 -844.018)" style="stroke:rgba(237,217,217,.99);fill:none"/>
                <path data-name="Path 1156" d="m0 0 2.361.4L6.027 0" transform="rotate(-8.88 346.117 -857.19)" style="stroke:rgba(237,217,217,.99);fill:none"/>
                <path data-name="Path 1158" d="m0 .671.955.367 1.253.3L4.292.883 5.942 0" transform="rotate(159 53.509 70.84)" style="stroke:rgba(237,217,217,.99);fill:none"/>
                <path data-name="Path 1159" d="m0 .46.654.251.859.208L2.94.6 4.07 0" transform="scale(-1) rotate(-19.01 -418.232 323.535)" style="stroke:rgba(237,217,217,.99);fill:none"/>
                <path data-name="Path 1161" d="m0 1.05 1.094.272 1.4.019L4.582.883 6.232 0" transform="rotate(159 28.976 60.642)" style="stroke:rgba(237,217,217,.99);fill:none"/>
                <path data-name="Path 1162" d="m0 .62.646.16.828.011L2.7.521 3.676 0" transform="rotate(164 31.248 59.114)" style="stroke:rgba(237,217,217,.99);fill:none"/>
            </g>
        </g>
    </g>
</svg>
